<svg width="602" height="269" viewBox="0 0 602 269" fill="none" xmlns="http://www.w3.org/2000/svg">
<g clip-path="url(#clip0_16_7)">
<path d="M280.613 127.593C280.998 127.507 281.359 127.341 281.676 127.106C281.992 126.872 282.255 126.574 282.449 126.232C282.642 125.889 282.762 125.51 282.799 125.119C282.837 124.728 282.792 124.333 282.667 123.961C282.191 122.144 280.787 121.647 279.058 121.936C277.41 122.313 275.74 122.583 274.057 122.746C262.454 123.093 250.851 123.359 239.329 123.614C238.041 123.614 236.753 123.417 235.036 123.278C235.883 121.23 236.498 119.692 237.159 118.165C246.36 96.9821 255.817 75.9036 264.635 54.5358C268.595 44.6887 271.931 34.6041 274.626 24.341C275.939 18.9695 276.44 13.4323 276.111 7.91316C275.867 1.55026 271.249 -1.34196 265.134 0.555339C261.726 1.54 258.484 3.02556 255.515 4.96309C247.393 10.5856 239.271 16.2312 231.729 22.5362C205.54 44.413 181.231 68.3028 157.189 92.4586C145.342 104.363 133.762 116.557 122.078 128.635C120.569 130.185 119.154 131.585 116.752 131.955C99.2194 134.65 81.6521 137.161 64.2125 140.377C50.4278 142.922 36.8055 146.347 23.1369 149.505C20.8886 150.064 18.7319 150.941 16.7319 152.108C13.4946 153.936 12.9956 156.446 15.2699 159.396C17.1496 161.837 19.3774 164.024 21.3848 166.338C25.2139 170.78 27.7782 175.859 27.9291 181.771C28.1719 186.069 27.9227 190.381 27.1864 194.624C22.9457 215.326 15.2419 235.17 4.39763 253.324C2.9896 255.533 1.72983 257.833 0.626573 260.208C-0.0407358 261.533 -0.207474 263.054 0.15682 264.492C0.521114 265.93 1.39215 267.189 2.61075 268.04C5.07064 269.81 7.6466 269.023 9.16662 266.397C11.2985 262.347 13.7588 258.478 16.523 254.828C50.1725 214.059 85.2839 174.505 121.103 135.599C122.603 133.85 124.733 132.761 127.032 132.568C138.23 131.411 149.403 129.953 160.612 128.843C181.22 126.795 201.885 126.043 222.585 126.008C223.716 126.062 224.841 126.202 225.95 126.425C226.027 126.841 226.047 127.265 226.008 127.686C225.034 130.115 224.047 132.533 223.026 134.94C210.889 163.434 199.483 192.183 191.581 222.192C191.106 223.974 190.607 225.767 190.293 227.572C190.052 228.478 190.132 229.441 190.521 230.295C190.911 231.149 191.584 231.842 192.428 232.257C193.194 232.649 194.07 232.769 194.914 232.599C195.757 232.429 196.517 231.978 197.07 231.32C199.461 228.916 201.683 226.349 203.718 223.638C205.47 221.209 204.681 218.907 202.036 217.518C201.14 217.126 200.217 216.797 199.274 216.535C207.977 185.299 220.949 155.868 233.562 126.298C234.919 126.298 235.883 126.298 236.753 126.298C249.389 126.899 262.036 127.524 274.684 128.056C276.672 128.178 278.668 128.022 280.613 127.593ZM15.5252 247.308C16.465 245.087 17.0104 243.699 17.6254 242.357C24.3118 228.125 29.398 213.199 32.7908 197.851C33.4674 194.691 33.9134 191.485 34.1252 188.261C34.7633 177.906 31.8046 168.802 24.2508 161.398C22.5336 159.709 20.8627 157.927 18.6001 155.671C21.286 154.39 24.0445 153.266 26.8616 152.305C36.9912 149.586 47.0744 146.613 57.3433 144.577C75.9085 140.909 94.6826 137.843 113.364 134.535C114.106 134.396 114.849 134.361 116.009 134.222L15.5252 247.308ZM228.596 121.901C228.245 122.589 227.858 123.257 227.435 123.903C193.825 124.317 160.262 126.545 126.893 130.578C127.312 129.616 127.825 128.698 128.425 127.836C162.364 92.0653 196.617 56.6066 234.281 24.6534C241.533 18.4987 249.598 13.258 257.488 7.87845C260.082 6.21852 262.937 5.00609 265.935 4.29209C269.845 3.26246 271.737 4.59288 271.644 8.56101C271.713 12.7064 271.225 16.8423 270.193 20.8588C267.696 30.055 264.663 39.098 261.108 47.9415C250.514 72.7568 239.456 97.3176 228.596 121.901Z" fill="url(#paint0_linear_16_7)"/>
<path d="M600.956 166.858C599.378 165.701 597.974 166.962 596.14 168.929C594.586 170.618 582.576 183.332 560.832 185.796C558.267 186.173 555.653 185.61 553.473 184.213C551.293 182.815 549.694 180.678 548.973 178.196C547.932 174.837 547.312 171.363 547.128 167.853C546.815 163.908 545.585 161.999 541.826 160.785C538.345 159.628 535.061 160.553 532.009 162.115C529.32 163.495 526.767 165.126 524.386 166.985C524.152 166.581 523.811 166.249 523.4 166.025C521.636 165.03 518.758 169.38 518.375 170.016C516.055 173.614 513.955 177.467 511.216 180.752C503.589 189.846 495.799 198.792 487.847 207.592C484.534 211.036 480.991 214.251 477.242 217.218C472.299 221.047 472.171 215.725 472.763 214.094C475.323 207.006 477.977 199.949 480.723 192.923C483.624 185.461 486.803 180.035 489.541 172.527C490.632 169.542 487.302 166.014 482.428 165.308C481.268 165.134 480.05 164.996 478.669 164.81C479.702 160.808 480.758 157.43 481.419 153.97C481.895 151.448 481.338 148.973 478.843 147.561C476.58 146.277 474.318 146.821 472.252 148.082C469.992 149.434 468.034 151.235 466.499 153.372C464.964 155.509 463.885 157.937 463.33 160.507C462.983 161.86 463.042 163.286 463.5 164.606C463.958 165.926 464.794 167.083 465.905 167.934C463.706 168.752 461.438 169.375 459.129 169.797C450.601 171.069 442.061 172.353 433.474 172.978C427.242 173.329 421.083 171.491 416.069 167.784C413.888 166.268 412.252 164.73 412.67 161.421C413.134 157.846 409.444 155.509 406.056 156.909C404.505 157.582 403.131 158.603 402.041 159.894C400.254 161.937 398.632 164.119 397.191 166.419C397.025 166.267 396.842 166.135 396.646 166.025C394.894 165.03 392.004 169.38 391.633 170.016C389.312 173.614 387.212 177.467 384.462 180.752C376.85 189.846 369.065 198.792 361.105 207.592C357.789 211.033 354.246 214.248 350.499 217.218C345.556 221.047 345.429 215.725 346.021 214.094C348.589 207.006 351.238 199.949 353.969 192.923C356.87 185.461 360.049 180.035 362.799 172.527C363.89 169.542 360.548 166.014 355.675 165.308C354.514 165.134 353.354 164.996 351.927 164.81C352.959 160.808 354.004 157.43 354.665 153.97C355.152 151.448 354.595 148.973 352.089 147.561C349.838 146.277 347.564 146.821 345.51 148.082C343.248 149.433 341.289 151.233 339.754 153.37C338.219 155.508 337.141 157.937 336.587 160.507C336.221 161.939 336.306 163.448 336.829 164.83C337.352 166.212 338.288 167.401 339.511 168.235C340.021 168.633 340.564 168.985 341.136 169.288C340.407 169.739 339.75 170.297 339.186 170.942C337.156 173.452 318.707 192.83 309.61 200.2C306.19 202.617 302.517 204.657 298.656 206.285C293.04 208.599 288.991 206.285 288.631 200.165C288.358 195.868 288.521 191.554 289.118 187.289C290.07 180.752 291.578 177.363 292.855 170.884C293.261 168.802 294.305 166.5 292.042 164.949C289.548 163.237 287.633 165.158 285.881 166.569C281.449 170.155 277.19 173.961 272.734 177.536C270.259 179.388 267.691 181.114 265.041 182.708C263.611 183.569 262.074 184.241 260.47 184.709C261.131 181.817 261.503 179.572 262.187 177.432C263.092 174.575 263.754 171.775 267.571 170.734C270.623 169.889 270.576 165.597 267.884 163.584C267.334 163.146 266.694 162.832 266.01 162.665C265.326 162.498 264.613 162.482 263.922 162.617C263.23 162.753 262.577 163.037 262.007 163.449C261.437 163.862 260.964 164.394 260.621 165.007C256.582 171.092 254.661 178.332 255.156 185.611C255.469 189.51 258.486 191.627 262.396 190.817C264.812 190.332 267.112 189.389 269.172 188.041C273.5 185.091 277.573 181.794 281.704 178.554C283.479 177.155 285.185 175.57 287.587 173.395C286.577 181.319 285.591 184.964 284.941 191.662C284.593 195.186 284.593 198.735 284.941 202.259C285.707 209.466 290.569 212.868 297.612 211.132C300.611 210.416 303.493 209.283 306.175 207.766C319.333 200.153 340.811 175.535 342.145 173.649C342.598 173.013 344.466 171.729 344.767 170.398C345.631 170.491 346.503 170.491 347.367 170.398C349.815 170.107 352.28 169.972 354.746 169.993C357.972 170.074 356.719 175.87 355.06 180.162C351.149 190.366 347.831 198.673 343.909 208.888C342.867 211.456 342.09 214.123 341.588 216.847C340.556 222.852 343.909 225.617 349.386 223.095C352.994 221.452 356.011 218.363 358.9 215.702C364.493 210.542 380.471 191.974 389.951 180.475C386.331 188.808 383.544 197.476 381.631 206.354C381.293 208.01 381.133 209.697 381.155 211.387C381.155 213.944 381.793 216.327 384.265 217.657C387.003 219.15 389.521 218.074 391.494 216.281C394.009 214.03 396.284 211.525 398.282 208.807C402.657 202.473 405.888 195.426 407.831 187.983C409.456 182.256 410.697 176.414 412.171 170.433C412.732 170.615 413.276 170.847 413.795 171.127C421.035 175.981 429.691 178.289 438.394 177.687C448.222 177.131 458.027 175.986 467.832 175.003C469.055 174.859 470.225 174.422 471.243 173.73C471.809 173.403 472.277 172.929 472.595 172.359C472.914 171.789 473.072 171.143 473.053 170.491C473.401 170.491 473.761 170.491 474.109 170.421C476.562 170.131 479.03 169.996 481.5 170.016C484.726 170.097 483.461 175.894 481.813 180.186C477.892 190.389 474.573 198.696 470.651 208.911C469.615 211.481 468.837 214.147 468.331 216.871C467.309 222.875 470.651 225.64 476.14 223.118C479.737 221.475 482.753 218.386 485.643 215.725C490.562 211.19 503.465 196.336 512.957 184.998C513.425 185.595 514.035 186.066 514.732 186.367C515.43 186.668 516.191 186.79 516.948 186.722C518.948 186.594 520.91 186.125 522.75 185.334C528.882 182.763 534.449 179.017 539.134 174.309C540.201 173.279 541.327 172.284 542.615 171.069C543.775 174.309 544.576 177.247 545.84 179.966C548.846 186.444 553.963 189.857 561.238 189.66C563.391 189.619 565.537 189.402 567.654 189.013C578.631 186.896 588.204 181.713 597.115 175.199C598.351 174.28 599.452 173.194 600.387 171.972C602.139 169.727 602.661 168.177 600.956 166.858ZM343.305 164.105C341.588 161.409 341.994 160.356 346.113 157.464L343.305 164.105ZM388.036 210.242C385.495 203.37 396.796 173.996 404.954 166.28C406.253 175.893 396.077 202.352 388.036 210.242ZM472.902 157.464L470.094 164.105C468.412 161.409 468.795 160.356 472.902 157.464ZM520.383 179.584C524.838 174.274 529.932 169.924 536.627 167.842C532.079 172.978 526.892 177.212 520.383 179.584Z" fill="url(#paint1_linear_16_7)"/>
</g>
<defs>
<linearGradient id="paint0_linear_16_7" x1="141.386" y1="-16.2427" x2="141.386" y2="322.46" gradientUnits="userSpaceOnUse">
<stop stop-color="white"/>
<stop offset="0.1" stop-color="white" stop-opacity="0.98"/>
<stop offset="0.21" stop-color="#FEFEFE" stop-opacity="0.94"/>
<stop offset="0.32" stop-color="#FCFCFC" stop-opacity="0.85"/>
<stop offset="0.42" stop-color="#FAFAFA" stop-opacity="0.74"/>
<stop offset="0.53" stop-color="#F7F7F7" stop-opacity="0.6"/>
<stop offset="0.64" stop-color="#F3F3F3" stop-opacity="0.42"/>
<stop offset="0.75" stop-color="#EFEFEF" stop-opacity="0.21"/>
<stop offset="0.85" stop-color="#EBEBEB" stop-opacity="0"/>
</linearGradient>
<linearGradient id="paint1_linear_16_7" x1="428.497" y1="-16.2427" x2="428.497" y2="322.46" gradientUnits="userSpaceOnUse">
<stop stop-color="white"/>
<stop offset="0.13" stop-color="white" stop-opacity="0.99"/>
<stop offset="0.24" stop-color="#FEFEFE" stop-opacity="0.95"/>
<stop offset="0.35" stop-color="#FEFEFE" stop-opacity="0.88"/>
<stop offset="0.45" stop-color="#FDFDFD" stop-opacity="0.78"/>
<stop offset="0.54" stop-color="#FCFCFC" stop-opacity="0.66"/>
<stop offset="0.64" stop-color="#FAFAFA" stop-opacity="0.51"/>
<stop offset="0.73" stop-color="#F8F8F8" stop-opacity="0.32"/>
<stop offset="0.81" stop-color="#F6F6F6" stop-opacity="0.12"/>
<stop offset="0.86" stop-color="#F5F5F5" stop-opacity="0"/>
</linearGradient>
<clipPath id="clip0_16_7">
<rect width="602" height="269" fill="white"/>
</clipPath>
</defs>
</svg>
