<svg width="874" height="29" viewBox="0 0 874 29" fill="none" xmlns="http://www.w3.org/2000/svg">
<g clip-path="url(#clip0_16_12)">
<path d="M5.11737 0.339905C9.16291 0.339905 12.2929 1.47693 14.5074 3.75098C15.6668 4.87881 16.5842 6.23052 17.2037 7.7238C17.8232 9.21708 18.1319 10.8207 18.1108 12.4369C18.1303 14.0749 17.8144 15.6996 17.1827 17.2114C16.5509 18.7232 15.6166 20.0901 14.437 21.2284C12.2303 23.4321 9.10814 24.5339 5.04695 24.5574H0.0467529V0.339905H5.11737ZM3.05156 3.03597V21.8848H5.10563C6.39473 21.9569 7.68544 21.7745 8.90392 21.3481C10.1224 20.9217 11.2447 20.2596 12.2068 19.3997C13.1295 18.493 13.8572 17.4079 14.3456 16.2107C14.834 15.0135 15.0728 13.7294 15.0474 12.4369C15.0671 11.147 14.8257 9.86629 14.3375 8.6718C13.8494 7.47732 13.1247 6.39367 12.2068 5.48584C10.2563 3.76526 7.70369 2.88463 5.10563 3.03597H3.05156Z" fill="white"/>
<path d="M39.6142 0.339905V2.97733H29.4729V11.1241H39.6142V13.8318H29.4729V21.9786H39.6142V24.616H26.4211V0.339905H39.6142Z" fill="white"/>
<path d="M48.7108 24.5574V0.339905H51.7625V21.9199H60.4718V24.5574H48.7108Z" fill="white"/>
<path d="M78.1955 0.339905L86.9751 24.5574H83.806L80.1556 14.5H73.5591L69.8384 24.5574H66.6575L75.5545 0.339905H78.1955ZM79.1931 11.8743L76.8456 5.43894L74.4981 11.8743H79.1931Z" fill="white"/>
<path d="M101.917 11.8157C100.348 11.3425 98.9126 10.5073 97.7267 9.37753C97.2156 8.88211 96.8114 8.28756 96.5389 7.6304C96.2664 6.97325 96.1314 6.26737 96.1421 5.55618C96.1392 4.83731 96.2835 4.12544 96.5661 3.46428C96.8487 2.80311 97.2636 2.20661 97.7854 1.71139C98.3149 1.16822 98.951 0.740043 99.6539 0.453633C100.357 0.167223 101.111 0.0287279 101.87 0.0468649C102.638 0.0379034 103.4 0.183825 104.109 0.475884C104.819 0.767942 105.463 1.20014 106.002 1.74656C106.662 2.44086 107.141 3.28603 107.398 4.20816L104.675 5.27486C104.482 4.6335 104.172 4.03337 103.76 3.50484C103.52 3.24159 103.229 3.03069 102.903 2.88544C102.578 2.7402 102.226 2.66375 101.87 2.66086C101.519 2.66327 101.173 2.73732 100.852 2.87843C100.531 3.01954 100.242 3.22474 100.004 3.48141C99.7345 3.754 99.5237 4.0786 99.3845 4.43535C99.2452 4.79211 99.1804 5.1735 99.1939 5.55618C99.186 5.94822 99.2568 6.33786 99.402 6.70222C99.5471 7.06657 99.7637 7.39827 100.039 7.67784C100.729 8.32111 101.523 8.84415 102.386 9.22514C104.209 9.79362 105.87 10.7859 107.234 12.1205C107.948 12.7955 108.516 13.61 108.902 14.5134C109.287 15.4168 109.483 16.3898 109.476 17.3718C109.485 18.3521 109.293 19.3238 108.911 20.227C108.53 21.1302 107.967 21.9458 107.258 22.6233C106.549 23.3402 105.702 23.9054 104.768 24.2843C103.833 24.6632 102.831 24.8479 101.823 24.827C100.802 24.8473 99.787 24.6558 98.8435 24.2643C97.8999 23.8729 97.048 23.2901 96.3416 22.5529C95.1472 21.3355 94.3917 19.7563 94.1937 18.0634L97.1164 17.0085C97.162 18.4317 97.7013 19.795 98.6422 20.865C99.0558 21.2963 99.5535 21.6385 100.105 21.8703C100.656 22.1021 101.249 22.2188 101.847 22.213C102.456 22.2167 103.06 22.0959 103.621 21.8581C104.182 21.6202 104.689 21.2703 105.11 20.8298C105.563 20.3798 105.92 19.8421 106.158 19.2495C106.396 18.6569 106.511 18.0219 106.495 17.3836C106.515 16.752 106.405 16.1229 106.171 15.5359C105.937 14.9489 105.583 14.4166 105.133 13.9725C104.214 13.0489 103.121 12.316 101.917 11.8157Z" fill="white"/>
<path d="M120.873 0.339905V24.5574H117.821V0.339905H120.873Z" fill="white"/>
<path d="M143.339 0.339905V2.97733H133.186V11.1241H143.339V13.8318H133.186V21.9786H143.339V24.616H130.134V0.339905H143.339Z" fill="white"/>
<path d="M158.328 16.6334H155.475V24.5574H152.424V0.339905H159.372C161.291 0.56251 163.077 1.4258 164.443 2.78978C165.2 3.52629 165.799 4.40932 166.202 5.38482C166.606 6.36032 166.806 7.40782 166.79 8.46321C166.797 9.53972 166.584 10.6063 166.164 11.5978C165.744 12.5894 165.127 13.4851 164.349 14.2304C163.576 15.115 162.585 15.7818 161.473 16.1645L166.919 24.5574H163.398L158.328 16.6334ZM155.475 3.0008V13.9725H158.504C159.196 13.9756 159.882 13.8379 160.52 13.5679C161.157 13.2979 161.733 12.9011 162.213 12.4018C162.733 11.8885 163.142 11.2742 163.414 10.5967C163.687 9.9192 163.817 9.19306 163.797 8.46321C163.816 7.73869 163.686 7.01799 163.413 6.34631C163.14 5.67463 162.732 5.06641 162.213 4.5598C161.733 4.06201 161.157 3.66706 160.519 3.39902C159.881 3.13098 159.195 2.9955 158.504 3.0008H155.475Z" fill="white"/>
<path d="M181.192 16.6334H178.34V24.5574H175.288V0.339905H182.237C184.155 0.56251 185.942 1.4258 187.308 2.78978C188.065 3.52629 188.663 4.40932 189.067 5.38482C189.471 6.36032 189.671 7.40782 189.655 8.46321C189.662 9.54087 189.448 10.6086 189.026 11.6005C188.605 12.5924 187.984 13.4874 187.202 14.2304C186.434 15.1226 185.441 15.7943 184.326 16.1762L189.772 24.5691H186.251L181.192 16.6334ZM178.34 3.0008V13.9725H181.345C182.038 13.9756 182.723 13.8379 183.361 13.5679C183.999 13.2979 184.575 12.9011 185.054 12.4018C185.574 11.8885 185.983 11.2742 186.256 10.5967C186.528 9.9192 186.658 9.19306 186.639 8.46321C186.658 7.73869 186.527 7.01799 186.254 6.34631C185.982 5.67462 185.573 5.06641 185.054 4.5598C184.574 4.06201 183.998 3.66706 183.36 3.39902C182.722 3.13098 182.037 2.9955 181.345 3.0008H178.34Z" fill="white"/>
<path d="M207.801 0.339905L216.581 24.5574H213.412L209.75 14.5H203.165L199.432 24.5574H196.251L205.149 0.339905H207.801ZM208.787 11.8743L206.44 5.43894L204.092 11.8743H208.787Z" fill="white"/>
<path d="M251.23 12.5307C251.918 12.5436 252.592 12.729 253.19 13.0699C253.632 13.3069 254.021 13.6321 254.332 14.0253C254.643 14.4185 254.869 14.8713 254.998 15.3557C255.08 15.6695 255.124 15.9924 255.127 16.3169C255.126 16.93 254.964 17.5321 254.657 18.0634C254.048 19.0505 253.074 19.758 251.946 20.0327C251.59 21.0033 250.997 21.8696 250.221 22.5529C249.515 23.2913 248.663 23.8748 247.72 24.2663C246.776 24.6578 245.761 24.8488 244.739 24.827C243.731 24.8465 242.73 24.6612 241.795 24.2824C240.861 23.9036 240.014 23.3391 239.305 22.6233C238.595 21.9457 238.032 21.1302 237.651 20.227C237.269 19.3238 237.077 18.3521 237.086 17.3718C237.076 15.4002 237.839 13.5028 239.211 12.0853C239.858 11.2478 240.767 10.6497 241.793 10.3856C240.4 9.13998 239.528 7.41544 239.352 5.55616C239.352 4.83771 239.497 4.12665 239.779 3.46587C240.062 2.80509 240.475 2.20828 240.995 1.71137C241.523 1.16966 242.157 0.742338 242.858 0.455976C243.559 0.169614 244.311 0.0303309 245.068 0.0468466C245.836 0.0330961 246.599 0.176837 247.31 0.469176C248.021 0.761514 248.664 1.19626 249.2 1.74654C249.862 2.43911 250.342 3.28489 250.596 4.20815L247.897 5.27484C247.683 4.60416 247.345 3.97977 246.899 3.4345C246.663 3.18733 246.379 2.99113 246.064 2.85806C245.749 2.72499 245.41 2.65788 245.068 2.66084C244.717 2.66185 244.37 2.73525 244.049 2.87645C243.728 3.01764 243.439 3.22362 243.202 3.48139C242.93 3.75299 242.717 4.07714 242.576 4.43394C242.435 4.79074 242.368 5.17265 242.38 5.55616C242.369 6.36908 242.681 7.15312 243.249 7.73642C243.666 8.2326 244.187 8.6325 244.774 8.90861C245.634 9.12307 246.519 9.21387 247.404 9.17822V11.7219H245.62C244.058 11.9191 242.607 12.633 241.5 13.7498C240.574 14.7178 240.064 16.0096 240.079 17.3484C240.062 17.9859 240.174 18.6203 240.41 19.2129C240.646 19.8054 241.001 20.3437 241.453 20.7946C241.871 21.2353 242.375 21.5855 242.935 21.8235C243.494 22.0614 244.096 22.182 244.704 22.1778C245.317 22.1787 245.924 22.0544 246.487 21.8125C247.05 21.5706 247.558 21.2163 247.979 20.7712C248.384 20.4048 248.708 19.9575 248.929 19.4583C248.296 19.0117 247.713 18.4968 247.192 17.9228C246.953 17.6831 246.694 17.4636 246.418 17.2663C246.368 17.2539 246.315 17.2539 246.265 17.2663H246.159C246.064 17.3043 245.985 17.3749 245.936 17.4656C245.88 17.5831 245.848 17.7107 245.843 17.8407C245.837 17.9188 245.837 17.9971 245.843 18.0751C245.873 18.1996 245.943 18.3108 246.042 18.3917C246.1 18.4027 246.16 18.4027 246.218 18.3917V20.9822H246.042C245.476 20.9769 244.919 20.8319 244.422 20.5602C244.056 20.359 243.736 20.0843 243.482 19.7535C243.227 19.4226 243.044 19.0428 242.943 18.6378C242.865 18.3713 242.826 18.095 242.826 17.8173C242.832 17.2977 242.974 16.7886 243.237 16.3403C243.687 15.5663 244.425 15.0016 245.291 14.7696C245.607 14.6774 245.935 14.63 246.265 14.6289C246.873 14.6289 247.47 14.7951 247.991 15.1095C248.608 15.4992 249.169 15.9726 249.657 16.5161C249.975 16.8336 250.325 17.1166 250.702 17.3601C250.81 17.4325 250.936 17.4731 251.066 17.4773C251.143 17.4928 251.223 17.4928 251.301 17.4773C251.567 17.4007 251.794 17.2244 251.934 16.985C252.038 16.7897 252.094 16.5729 252.099 16.352C252.096 16.224 252.072 16.0973 252.028 15.9769C251.998 15.831 251.937 15.693 251.85 15.5719C251.764 15.4507 251.652 15.3491 251.524 15.2736C251.416 15.2271 251.3 15.1994 251.183 15.1916L251.23 12.5307Z" fill="white"/>
<path d="M277.663 24.5574V0.339905H280.715V21.9199H289.424V24.5574H277.663Z" fill="white"/>
<path d="M316.96 3.66896C318.135 4.80027 319.066 6.15957 319.696 7.66335C320.326 9.16713 320.641 10.7836 320.622 12.4135C320.643 14.0455 320.329 15.6644 319.699 17.1704C319.07 18.6764 318.137 20.0376 316.96 21.1698C315.794 22.3577 314.397 23.2948 312.855 23.9237C311.313 24.5527 309.658 24.8601 307.993 24.827C306.331 24.8575 304.681 24.5489 303.143 23.92C301.605 23.2911 300.212 22.3553 299.049 21.1698C297.872 20.0376 296.94 18.6764 296.31 17.1704C295.68 15.6644 295.366 14.0455 295.387 12.4135C295.368 10.7836 295.683 9.16713 296.313 7.66335C296.943 6.15957 297.874 4.80027 299.049 3.66896C300.21 2.47966 301.602 1.54054 303.14 0.909515C304.679 0.278487 306.33 -0.0310318 307.993 3.69698e-05C309.659 -0.0335587 311.315 0.274713 312.858 0.905795C314.4 1.53688 315.796 2.47731 316.96 3.66896ZM307.993 2.6609C306.741 2.65163 305.5 2.89856 304.348 3.38643C303.195 3.87431 302.155 4.5928 301.291 5.49761C300.368 6.39429 299.639 7.47093 299.151 8.66068C298.662 9.85044 298.424 11.1279 298.45 12.4135C298.422 13.7012 298.66 14.9808 299.148 16.1727C299.637 17.3646 300.366 18.4432 301.291 19.3412C302.155 20.2444 303.196 20.9611 304.349 21.447C305.501 21.9329 306.742 22.1776 307.993 22.1661C309.248 22.1794 310.492 21.9356 311.649 21.4497C312.806 20.9638 313.85 20.2462 314.718 19.3412C315.643 18.4432 316.372 17.3646 316.861 16.1727C317.35 14.9808 317.587 13.7012 317.559 12.4135C317.586 11.1279 317.347 9.85044 316.859 8.66068C316.37 7.47093 315.641 6.39429 314.718 5.49761C313.856 4.59678 312.82 3.88067 311.671 3.39298C310.523 2.90529 309.288 2.6562 308.04 2.6609H307.993Z" fill="white"/>
<path d="M335.646 11.8157C334.073 11.345 332.633 10.5095 331.444 9.37752C330.933 8.8821 330.529 8.28755 330.257 7.63039C329.984 6.97324 329.849 6.26736 329.86 5.55616C329.86 4.83771 330.005 4.12665 330.288 3.46587C330.57 2.8051 330.983 2.20828 331.503 1.71138C332.034 1.17047 332.671 0.743768 333.373 0.457522C334.076 0.171275 334.829 0.0315139 335.588 0.0468543C336.356 0.0365408 337.118 0.18184 337.828 0.473977C338.538 0.766114 339.181 1.19904 339.719 1.74655C340.382 2.43911 340.861 3.2849 341.116 4.20815L338.393 5.27485C338.2 4.63349 337.889 4.03336 337.477 3.50483C337.239 3.24045 336.947 3.0288 336.622 2.88346C336.296 2.73813 335.944 2.66231 335.588 2.66085C335.239 2.66206 334.893 2.73561 334.574 2.87685C334.255 3.01808 333.969 3.22395 333.733 3.4814C333.46 3.75174 333.246 4.07566 333.105 4.43277C332.963 4.78988 332.897 5.1724 332.912 5.55616C332.904 5.94821 332.974 6.33785 333.12 6.70221C333.265 7.06656 333.481 7.39826 333.757 7.67783C334.451 8.31607 335.244 8.83853 336.104 9.22513C337.928 9.79072 339.59 10.7834 340.952 12.1204C341.668 12.7942 342.236 13.6085 342.622 14.5122C343.008 15.4159 343.203 16.3895 343.194 17.3718C343.205 18.3513 343.015 19.3227 342.635 20.226C342.256 21.1293 341.695 21.9452 340.987 22.6233C340.276 23.3405 339.427 23.9058 338.491 24.2847C337.555 24.6636 336.551 24.8481 335.541 24.827C334.521 24.8471 333.508 24.6554 332.567 24.2639C331.625 23.8725 330.775 23.2898 330.071 22.5529C328.869 21.3398 328.108 19.759 327.911 18.0634L330.846 17.0085C330.882 18.4259 331.413 19.7861 332.348 20.8532C332.759 21.2854 333.254 21.6282 333.803 21.8601C334.353 22.0921 334.944 22.2082 335.541 22.2013C336.151 22.2064 336.755 22.0862 337.316 21.8483C337.877 21.6103 338.384 21.2597 338.804 20.8181C339.26 20.3691 339.619 19.8318 339.859 19.2391C340.099 18.6465 340.215 18.011 340.201 17.3718C340.215 16.741 340.102 16.1138 339.868 15.5277C339.634 14.9415 339.284 14.4086 338.839 13.9608C337.922 13.0488 336.838 12.3207 335.646 11.8157Z" fill="white"/>
<path d="M385.871 21.2635C384.733 22.3936 383.381 23.2865 381.894 23.8902C380.407 24.4939 378.814 24.7964 377.209 24.7801C375.548 24.817 373.896 24.5124 372.358 23.8853C370.819 23.2582 369.426 22.3219 368.265 21.1346C367.091 20.0031 366.161 18.6435 365.534 17.1396C364.906 15.6357 364.593 14.0192 364.615 12.39C364.599 10.7651 364.915 9.15398 365.542 7.6547C366.17 6.15542 367.096 4.79932 368.265 3.6689C369.424 2.47791 370.817 1.53767 372.355 0.906519C373.894 0.275368 375.546 -0.0331865 377.209 -2.57192e-05C380.584 0.0412434 383.813 1.38059 386.223 3.73927L384.099 5.62648C382.25 3.82191 379.793 2.77252 377.209 2.68427C375.959 2.67198 374.719 2.91523 373.567 3.39903C372.414 3.88284 371.373 4.59698 370.507 5.49755C369.591 6.39351 368.869 7.46725 368.384 8.65264C367.9 9.83804 367.663 11.1099 367.69 12.39C367.658 13.6759 367.892 14.9546 368.377 16.1464C368.862 17.3382 369.587 18.4176 370.507 19.3177C371.373 20.2167 372.415 20.929 373.568 21.4108C374.72 21.8926 375.96 22.1337 377.209 22.1192C379.246 22.1812 381.241 21.5256 382.843 20.2671V12.8941H385.871V21.2635Z" fill="white"/>
<path d="M404.334 0.339905L413.114 24.5574H409.945L406.295 14.5H399.698L395.977 24.5574H392.785L401.693 0.339905H404.334ZM405.332 11.8743L402.985 5.43894L400.637 11.8743H405.332Z" fill="white"/>
<path d="M423.596 0.339905V24.5574H420.544V0.339905H423.596Z" fill="white"/>
<path d="M440.333 2.97733V24.5574H437.305V2.97733H431.507V0.339905H446.073V2.97733H440.333Z" fill="white"/>
<path d="M467.06 0.339905V2.97733H456.919V11.1241H467.06V13.8318H456.919V21.9786H467.06V24.616H453.867V0.339905H467.06Z" fill="white"/>
<path d="M482.06 16.6334H479.208V24.5574H476.156V0.339905H483.105C485.023 0.56251 486.81 1.4258 488.176 2.78978C488.933 3.52587 489.532 4.40882 489.936 5.38443C490.34 6.36003 490.54 7.40773 490.523 8.46321C490.533 9.54012 490.321 10.6075 489.901 11.5995C489.481 12.5914 488.862 13.4868 488.082 14.2304C487.313 15.1141 486.325 15.781 485.218 16.1645L490.664 24.5574H487.143L482.06 16.6334ZM479.208 3.0008V13.9725H482.213C482.905 13.9736 483.591 13.835 484.228 13.5651C484.865 13.2952 485.442 12.8995 485.922 12.4018C486.438 11.8863 486.844 11.2712 487.114 10.5941C487.385 9.91697 487.514 9.19196 487.495 8.46321C487.514 7.7398 487.384 7.02022 487.113 6.34889C486.843 5.67755 486.437 5.06868 485.922 4.5598C485.441 4.06365 484.864 3.6698 484.227 3.40188C483.59 3.13397 482.905 2.99754 482.213 3.0008H479.208Z" fill="white"/>
<path d="M519.75 3.66896C520.925 4.80027 521.856 6.15957 522.485 7.66335C523.115 9.16713 523.43 10.7836 523.412 12.4135C523.433 14.0455 523.119 15.6644 522.489 17.1704C521.859 18.6764 520.927 20.0376 519.75 21.1698C518.583 22.3577 517.186 23.2948 515.644 23.9237C514.102 24.5527 512.448 24.8601 510.782 24.827C509.121 24.8575 507.47 24.5489 505.932 23.92C504.394 23.2911 503.001 22.3553 501.838 21.1698C500.661 20.0376 499.729 18.6764 499.099 17.1704C498.469 15.6644 498.155 14.0455 498.176 12.4135C498.157 10.7836 498.473 9.16713 499.102 7.66335C499.732 6.15957 500.663 4.80027 501.838 3.66896C502.999 2.47966 504.391 1.54054 505.93 0.909515C507.468 0.278487 509.119 -0.0310318 510.782 3.69698e-05C512.449 -0.0335587 514.104 0.274713 515.647 0.905795C517.189 1.53688 518.586 2.47731 519.75 3.66896ZM510.782 2.6609C509.53 2.65163 508.29 2.89856 507.137 3.38643C505.984 3.87431 504.944 4.5928 504.08 5.49761C503.157 6.39429 502.429 7.47093 501.94 8.66068C501.451 9.85044 501.213 11.1279 501.24 12.4135C501.211 13.7012 501.449 14.9808 501.938 16.1727C502.426 17.3646 503.156 18.4432 504.08 19.3412C504.945 20.2444 505.985 20.9611 507.138 21.447C508.291 21.9329 509.531 22.1776 510.782 22.1661C512.037 22.1794 513.281 21.9356 514.438 21.4497C515.595 20.9638 516.64 20.2462 517.508 19.3412C518.432 18.4432 519.161 17.3646 519.65 16.1727C520.139 14.9808 520.377 13.7012 520.348 12.4135C520.375 11.1279 520.136 9.85044 519.648 8.66068C519.159 7.47093 518.431 6.39429 517.508 5.49761C516.64 4.59102 515.596 3.87157 514.439 3.38368C513.282 2.89579 512.038 2.64981 510.782 2.6609Z" fill="white"/>
<path d="M538.389 11.8157C536.815 11.345 535.376 10.5095 534.187 9.37752C533.676 8.88211 533.272 8.28755 532.999 7.63039C532.727 6.97324 532.591 6.26736 532.602 5.55617C532.602 4.83771 532.748 4.12665 533.03 3.46588C533.312 2.8051 533.726 2.20828 534.245 1.71138C534.778 1.16901 535.416 0.741454 536.121 0.455161C536.826 0.168868 537.581 0.0299041 538.342 0.0468547C539.108 0.0374526 539.868 0.183242 540.576 0.475373C541.284 0.767503 541.926 1.19993 542.462 1.74655C543.124 2.44102 543.607 3.28579 543.87 4.20815L541.135 5.27485C540.942 4.63349 540.632 4.03336 540.22 3.50483C539.983 3.24191 539.693 3.03111 539.37 2.88583C539.046 2.74054 538.696 2.66393 538.342 2.66085C537.991 2.66115 537.644 2.73424 537.323 2.87549C537.001 3.01673 536.713 3.22306 536.476 3.4814C536.203 3.75174 535.988 4.07566 535.847 4.43277C535.706 4.78988 535.64 5.1724 535.654 5.55617C535.646 5.94821 535.717 6.33785 535.862 6.70221C536.007 7.06656 536.224 7.39827 536.499 7.67783C537.193 8.31607 537.986 8.83853 538.847 9.22513C540.67 9.79072 542.332 10.7834 543.694 12.1204C544.41 12.7942 544.979 13.6085 545.365 14.5122C545.75 15.4159 545.945 16.3895 545.936 17.3718C545.947 18.3513 545.757 19.3228 545.378 20.226C544.998 21.1293 544.437 21.9452 543.729 22.6233C543.02 23.3391 542.173 23.9036 541.239 24.2824C540.305 24.6612 539.303 24.8465 538.295 24.827C537.273 24.8488 536.258 24.6578 535.315 24.2663C534.371 23.8748 533.519 23.2913 532.814 22.5529C531.611 21.3398 530.851 19.759 530.654 18.0634L533.588 17.0085C533.624 18.4259 534.156 19.7861 535.091 20.8532C535.503 21.2863 536 21.6295 536.552 21.8615C537.103 22.0935 537.697 22.2092 538.295 22.2013C538.903 22.2055 539.505 22.0849 540.064 21.8469C540.624 21.609 541.128 21.2588 541.546 20.8181C542.002 20.3691 542.361 19.8318 542.601 19.2391C542.841 18.6465 542.958 18.011 542.943 17.3718C542.958 16.741 542.844 16.1138 542.61 15.5277C542.377 14.9415 542.027 14.4086 541.581 13.9608C540.664 13.0488 539.58 12.3207 538.389 11.8157Z" fill="white"/>
<path d="M573.12 0.339905C577.173 0.339905 580.323 1.47693 582.569 3.75098C583.726 4.88046 584.642 6.23251 585.261 7.72541C585.881 9.21831 586.191 10.8211 586.172 12.4369C586.192 14.0749 585.876 15.6996 585.244 17.2114C584.612 18.7232 583.678 20.0901 582.498 21.2284C580.292 23.4321 577.17 24.5339 573.108 24.5574H567.991V0.339905H573.12ZM571.054 3.03597V21.8848H573.108C575.692 22.0121 578.221 21.1195 580.151 19.3997C581.074 18.493 581.801 17.4079 582.29 16.2107C582.778 15.0135 583.017 13.7294 582.991 12.4369C583.011 11.147 582.77 9.86629 582.282 8.6718C581.794 7.47732 581.069 6.39367 580.151 5.48584C578.215 3.78099 575.686 2.90154 573.108 3.03597H571.054Z" fill="white"/>
<path d="M607.617 0.339905V2.97733H597.487V11.1241H607.629V13.8318H597.487V21.9786H607.629V24.616H594.436V0.339905H607.617Z" fill="white"/>
<path d="M637.313 11.8157C635.744 11.3425 634.308 10.5073 633.122 9.37753C632.611 8.88211 632.207 8.28756 631.935 7.6304C631.662 6.97325 631.527 6.26737 631.538 5.55618C631.538 4.83772 631.683 4.12666 631.966 3.46589C632.248 2.80511 632.661 2.20829 633.181 1.71139C633.711 1.16822 634.347 0.740043 635.049 0.453633C635.752 0.167223 636.507 0.0287279 637.266 0.0468649C638.033 0.0379034 638.795 0.183825 639.505 0.475884C640.215 0.767942 640.859 1.20014 641.397 1.74656C642.057 2.44086 642.537 3.28603 642.794 4.20816L640.071 5.27486C639.878 4.6335 639.567 4.03337 639.155 3.50484C638.916 3.24159 638.624 3.03069 638.299 2.88544C637.974 2.7402 637.622 2.66375 637.266 2.66086C636.915 2.66327 636.569 2.73732 636.248 2.87843C635.927 3.01954 635.638 3.22474 635.399 3.48141C635.13 3.754 634.919 4.0786 634.78 4.43535C634.641 4.79211 634.576 5.1735 634.59 5.55618C634.582 5.94822 634.652 6.33786 634.798 6.70222C634.943 7.06657 635.159 7.39827 635.435 7.67784C636.125 8.32111 636.918 8.84415 637.782 9.22514C639.605 9.79362 641.266 10.7859 642.63 12.1205C643.344 12.7955 643.912 13.61 644.297 14.5134C644.683 15.4168 644.878 16.3898 644.872 17.3718C644.881 18.3521 644.689 19.3238 644.307 20.227C643.925 21.1302 643.363 21.9458 642.653 22.6233C641.945 23.3402 641.098 23.9054 640.163 24.2843C639.229 24.6632 638.227 24.8479 637.219 24.827C636.197 24.8473 635.183 24.6558 634.239 24.2643C633.296 23.8729 632.444 23.2901 631.737 22.5529C630.543 21.3355 629.787 19.7563 629.589 18.0634L632.512 17.0085C632.554 18.4248 633.085 19.7831 634.014 20.8532C634.428 21.2846 634.926 21.6267 635.477 21.8586C636.028 22.0904 636.621 22.2071 637.219 22.2013C637.828 22.205 638.432 22.0842 638.993 21.8464C639.554 21.6085 640.061 21.2586 640.482 20.8181C640.935 20.3681 641.292 19.8303 641.53 19.2377C641.769 18.6451 641.883 18.0102 641.867 17.3718C641.888 16.7402 641.777 16.1112 641.543 15.5242C641.309 14.9372 640.955 14.4049 640.505 13.9608C639.592 13.044 638.507 12.3152 637.313 11.8157Z" fill="white"/>
<path d="M662.689 0.339905L671.481 24.5574H668.312L664.65 14.5H658.053L654.332 24.5574H651.151L660.048 0.339905H662.689ZM663.687 11.8743L661.34 5.43894L658.992 11.8743H663.687Z" fill="white"/>
<path d="M681.692 0.339905L695.519 19.6928V0.339905H698.571V24.5574H695.202L681.728 5.68509V24.5574H678.676V0.339905H681.692Z" fill="white"/>
<path d="M724.429 24.3815C724.438 25.0048 724.317 25.6231 724.072 26.1966C723.828 26.77 723.465 27.2858 723.008 27.7106C721.761 28.7195 720.171 29.2068 718.572 29.0703V26.5384C719.344 26.6287 720.124 26.4372 720.766 25.9992C720.986 25.7605 721.154 25.4789 721.259 25.1722C721.364 24.8655 721.404 24.5404 721.377 24.2174V0.339905H724.429V24.3815Z" fill="white"/>
<path d="M743.197 0.339905L751.977 24.5574H748.808L745.145 14.5H738.561L734.828 24.5574H731.647L740.544 0.339905H743.197ZM744.183 11.8743L741.835 5.43894L739.488 11.8743H744.183Z" fill="white"/>
<path d="M778.081 19.224L780.206 21.1112C777.788 23.464 774.555 24.795 771.179 24.827C769.518 24.8618 767.868 24.5563 766.329 23.9293C764.791 23.3023 763.398 22.3671 762.235 21.1815C761.061 20.05 760.132 18.6905 759.504 17.1865C758.876 15.6826 758.563 14.0662 758.585 12.437C758.569 10.812 758.885 9.20093 759.513 7.70166C760.14 6.20238 761.066 4.84628 762.235 3.71586C763.397 2.52712 764.789 1.58836 766.327 0.957376C767.866 0.326389 769.517 0.0165218 771.179 0.0468963C774.558 0.0875729 777.79 1.42679 780.206 3.78619L778.081 5.67343C776.227 3.87002 773.766 2.82108 771.179 2.73122C769.929 2.72031 768.69 2.96417 767.538 3.44789C766.386 3.93161 765.344 4.64501 764.477 5.54447C763.561 6.44043 762.839 7.51421 762.355 8.6996C761.87 9.885 761.634 11.1569 761.66 12.437C761.629 13.7229 761.863 15.0015 762.348 16.1933C762.832 17.3851 763.557 18.4646 764.477 19.3646C765.345 20.2625 766.387 20.9741 767.539 21.4558C768.691 21.9376 769.93 22.1792 771.179 22.1661C773.767 22.0819 776.23 21.0322 778.081 19.224Z" fill="white"/>
<path d="M791.685 0.339905V24.5574H788.633V0.339905H791.685Z" fill="white"/>
<path d="M803.915 0.339905L817.73 19.6928V0.339905H820.782V24.5574H817.413L803.95 5.68509V24.5574H800.899V0.339905H803.915Z" fill="white"/>
<path d="M837.309 2.97733V24.5574H834.28V2.97733H828.482V0.339905H843.095V2.97733H837.309Z" fill="white"/>
<path d="M870.338 3.66896C871.513 4.80027 872.444 6.15957 873.074 7.66335C873.704 9.16713 874.019 10.7836 874 12.4135C874.021 14.0455 873.707 15.6644 873.077 17.1704C872.447 18.6764 871.515 20.0376 870.338 21.1698C869.172 22.3577 867.775 23.2948 866.233 23.9237C864.691 24.5527 863.036 24.8601 861.371 24.827C859.709 24.8575 858.059 24.5489 856.521 23.92C854.983 23.2911 853.59 22.3553 852.427 21.1698C851.25 20.0376 850.317 18.6764 849.687 17.1704C849.058 15.6644 848.743 14.0455 848.764 12.4135C848.746 10.7836 849.061 9.16713 849.691 7.66335C850.32 6.15957 851.252 4.80027 852.427 3.66896C853.587 2.47966 854.98 1.54054 856.518 0.909515C858.056 0.278487 859.708 -0.0310318 861.371 3.69698e-05C863.037 -0.0335587 864.693 0.274713 866.235 0.905795C867.778 1.53688 869.174 2.47731 870.338 3.66896ZM861.371 2.6609C860.118 2.65024 858.878 2.89651 857.725 3.38447C856.572 3.87242 855.532 4.59169 854.668 5.49761C853.745 6.39429 853.017 7.47093 852.528 8.66068C852.04 9.85044 851.801 11.1279 851.828 12.4135C851.8 13.7012 852.037 14.9808 852.526 16.1727C853.015 17.3646 853.744 18.4432 854.668 19.3412C855.532 20.2456 856.573 20.963 857.726 21.4489C858.879 21.9349 860.119 22.179 861.371 22.1661C862.625 22.1794 863.87 21.9356 865.026 21.4497C866.183 20.9638 867.228 20.2462 868.096 19.3412C869.018 18.4422 869.746 17.3631 870.232 16.1713C870.719 14.9794 870.955 13.7003 870.925 12.4135C870.953 11.1287 870.717 9.85182 870.23 8.66212C869.743 7.47241 869.017 6.39529 868.096 5.49761C867.229 4.59102 866.184 3.87157 865.027 3.38368C863.871 2.89579 862.626 2.64981 861.371 2.6609Z" fill="white"/>
</g>
<defs>
<clipPath id="clip0_16_12">
<rect width="874" height="29" fill="white"/>
</clipPath>
</defs>
</svg>
