<svg width="30" height="29" viewBox="0 0 30 29" fill="none" xmlns="http://www.w3.org/2000/svg">
<path d="M15 2.89001C18.78 2.89001 19.23 2.89002 20.72 2.97002C21.6187 2.97655 22.5092 3.14246 23.35 3.46001C23.9598 3.69558 24.5139 4.05552 24.9771 4.51692C25.4402 4.97832 25.8021 5.53108 26.04 6.14001C26.3533 6.98545 26.5191 7.87844 26.53 8.78001C26.6 10.27 26.61 10.72 26.61 14.5C26.61 18.28 26.61 18.73 26.53 20.22C26.5191 21.1216 26.3533 22.0146 26.04 22.86C25.8021 23.469 25.4402 24.0217 24.9771 24.4831C24.5139 24.9445 23.9598 25.3044 23.35 25.54C22.5092 25.8576 21.6187 26.0235 20.72 26.03C19.23 26.1 18.78 26.11 15 26.11C11.22 26.11 10.77 26.11 9.27002 26.03C8.37128 26.0235 7.48081 25.8576 6.64001 25.54C6.02288 25.3158 5.46528 24.9532 5.01001 24.48C4.54156 24.0248 4.17959 23.4716 3.95001 22.86C3.6414 22.0136 3.47904 21.1209 3.46997 20.22C3.39997 18.73 3.38 18.28 3.38 14.5C3.38 10.72 3.37997 10.27 3.46997 8.78001C3.47904 7.87916 3.6414 6.98641 3.95001 6.14001C4.17959 5.52847 4.54156 4.97526 5.01001 4.52001C5.46528 4.04686 6.02288 3.68426 6.64001 3.46001C7.48081 3.14246 8.37128 2.97655 9.27002 2.97002C10.77 2.90002 11.21 2.89001 15 2.89001ZM15 0.330017C11.15 0.330017 10.67 0.330013 9.15997 0.420013C7.98428 0.444327 6.82118 0.667483 5.71997 1.08002C4.77427 1.43346 3.91757 1.98984 3.21002 2.71001C2.49019 3.41981 1.93094 4.27572 1.57001 5.22002C1.15671 6.32065 0.936779 7.48446 0.919983 8.66002C0.849983 10.17 0.830017 10.66 0.830017 14.5C0.830017 18.34 0.829983 18.83 0.919983 20.34C0.936779 21.5156 1.15671 22.6794 1.57001 23.78C1.93094 24.7243 2.49019 25.5802 3.21002 26.29C3.91757 27.0102 4.77427 27.5666 5.71997 27.92C6.82118 28.3325 7.98428 28.5557 9.15997 28.58C10.67 28.65 11.16 28.67 15 28.67C18.84 28.67 19.33 28.67 20.84 28.58C22.0157 28.5557 23.1788 28.3325 24.28 27.92C25.2257 27.5666 26.0824 27.0102 26.79 26.29C27.5079 25.5806 28.064 24.7244 28.42 23.78C28.8325 22.6788 29.0557 21.5157 29.08 20.34C29.15 18.83 29.16 18.34 29.16 14.5C29.16 10.66 29.16 10.17 29.08 8.66002C29.0557 7.48433 28.8325 6.32123 28.42 5.22002C28.064 4.27563 27.5079 3.41939 26.79 2.71001C26.0824 1.98984 25.2257 1.43346 24.28 1.08002C23.1788 0.667483 22.0157 0.444327 20.84 0.420013C19.33 0.350013 18.84 0.330017 15 0.330017Z" fill="white"/>
<path d="M15 7.23001C13.5621 7.23001 12.1565 7.65639 10.961 8.45522C9.76544 9.25406 8.83362 10.3895 8.28337 11.7179C7.73312 13.0463 7.58916 14.5081 7.86968 15.9183C8.15019 17.3286 8.84257 18.6239 9.8593 19.6407C10.876 20.6574 12.1714 21.3498 13.5817 21.6303C14.9919 21.9108 16.4537 21.7669 17.7821 21.2166C19.1105 20.6664 20.2459 19.7345 21.0448 18.539C21.8436 17.3435 22.27 15.9379 22.27 14.5C22.27 12.5719 21.5041 10.7227 20.1407 9.35934C18.7773 7.99595 16.9281 7.23001 15 7.23001ZM15 19.23C14.0665 19.23 13.1539 18.9532 12.3777 18.4345C11.6015 17.9159 10.9965 17.1787 10.6393 16.3163C10.282 15.4538 10.1885 14.5048 10.3707 13.5892C10.5528 12.6736 11.0024 11.8326 11.6625 11.1725C12.3226 10.5124 13.1636 10.0628 14.0791 9.8807C14.9947 9.69858 15.9438 9.79205 16.8063 10.1493C17.6687 10.5065 18.4059 11.1115 18.9245 11.8877C19.4432 12.6639 19.72 13.5765 19.72 14.51C19.7173 15.7601 19.2189 16.9581 18.334 17.8411C17.4491 18.7241 16.2501 19.22 15 19.22V19.23Z" fill="white"/>
<path d="M22.6 8.63999C23.5389 8.63999 24.3 7.87887 24.3 6.93999C24.3 6.00111 23.5389 5.23999 22.6 5.23999C21.6611 5.23999 20.9 6.00111 20.9 6.93999C20.9 7.87887 21.6611 8.63999 22.6 8.63999Z" fill="white"/>
</svg>
