<svg width="454" height="141" viewBox="0 0 454 141" fill="none" xmlns="http://www.w3.org/2000/svg">
<g opacity="0.46">
<path d="M0 98.1078C0.362669 96.1271 0.552048 94.1185 0.565988 92.1049C1.1528 79.7215 2.64031 67.3973 5.01672 55.2299C7.00625 44.9392 9.09012 34.6914 11.8772 24.5807C13.0435 20.3358 14.4499 16.1595 15.5475 11.8975C15.9611 9.76101 16.2475 7.60188 16.4051 5.43148C16.5051 4.22182 16.7945 3.03537 17.2626 1.91549C17.8629 0.654877 18.772 0.0202847 19.6638 0.200371C20.2005 0.366495 20.6725 0.694801 21.0149 1.14014C21.3574 1.58548 21.5534 2.12597 21.5762 2.68729C21.6605 4.15511 21.4744 5.62593 21.0273 7.02654C18.4032 17.2658 15.3674 27.3936 12.9577 37.6928C10.499 48.1362 8.57276 58.6978 7.18634 69.3367C5.75537 80.2987 5.02497 91.3407 4.99957 102.396C4.96705 110.094 5.58093 117.782 6.83474 125.378C7.13489 127.093 7.16919 128.903 7.56366 130.644C7.75278 131.642 8.163 132.586 8.76425 133.405C9.45029 134.262 10.0677 134.262 10.6423 133.293C11.0655 132.481 11.3798 131.616 11.577 130.721C14.5871 120.37 17.0826 109.891 19.7667 99.4542C24.2689 81.9 29.2942 64.5087 35.8545 47.589C40.4096 35.4596 46.1607 23.8137 53.0228 12.8236C57.6523 5.60714 63.0744 -1.069 69.1878 -7.0803C70.9591 -8.88644 72.9807 -10.4287 75.1907 -11.6597C76.5235 -12.4106 77.9729 -12.9324 79.4785 -13.2033C80.7286 -13.4702 82.0309 -13.3392 83.2028 -12.8286C84.3747 -12.318 85.3574 -11.4535 86.0131 -10.3562C87.2236 -8.47491 87.9539 -6.32531 88.1398 -4.096C88.4236 -0.593138 88.1486 2.93256 87.3252 6.34906C82.9869 27.4809 76.4005 48.0881 67.6785 67.8188C65.183 73.5816 62.5846 79.293 59.789 84.91C59.258 85.8102 58.8812 86.7927 58.6741 87.8171C59.0257 88.0315 59.1458 87.7485 59.3002 87.6027C72.1746 75.1617 86.7956 64.6661 102.701 56.4476C104.228 55.6672 105.728 54.8268 107.195 53.8749C108.177 53.1544 109.294 52.6383 110.479 52.3571C110.775 52.3073 111.052 52.1781 111.28 51.9833C111.508 51.7884 111.679 51.5353 111.774 51.2508C112.96 48.7294 114.448 46.3621 116.208 44.2017C116.963 43.2439 117.87 42.4156 118.892 41.7491C119.457 41.3603 120.116 41.1303 120.801 41.0831C121.485 41.0359 122.169 41.1732 122.783 41.4807C123.396 41.7881 123.915 42.2545 124.287 42.8312C124.658 43.4078 124.868 44.0736 124.895 44.7591C125.009 45.9375 124.795 47.1245 124.277 48.1893C123.283 50.2411 122.091 52.1912 120.718 54.0122C120.33 54.5457 119.83 54.9877 119.252 55.3071C118.889 55.54 118.477 55.6852 118.049 55.7314C117.62 55.7775 117.186 55.7233 116.782 55.5729C115.53 55.0927 114.81 55.41 114.261 56.6792C113.553 58.3102 113.129 60.0505 113.009 61.8245C112.923 62.6799 112.923 63.5418 113.009 64.3972C113.309 66.7812 114.964 67.6902 117.151 66.7126C118.15 66.2182 119.09 65.6142 119.955 64.9117C128.617 58.3771 136.095 50.6248 143.255 42.538C145.472 40.0123 147.215 37.1072 148.4 33.9624C151.419 26.1158 154.515 18.312 158.288 10.8084C162.163 2.82282 167.181 -4.55539 173.184 -11.0937C174.123 -12.0874 175.132 -13.0131 176.203 -13.8636C176.99 -14.5081 177.854 -15.0525 178.775 -15.4844C181.811 -16.8736 184.418 -15.3643 184.778 -12.0541C184.909 -10.3796 184.639 -8.69784 183.989 -7.1489C183.045 -4.6881 181.898 -2.31017 180.559 -0.0397444C177.626 5.0027 174.256 9.745 170.86 14.4787C166.143 21.0648 161.35 27.6079 156.187 33.851C151.587 39.525 148.157 46.0536 146.094 53.0603C143.125 62.4226 141.029 72.0397 139.833 81.7885C138.846 89.681 138.625 97.6506 139.173 105.586C139.362 107.806 139.677 110.013 140.116 112.197C140.216 112.802 140.425 113.383 140.734 113.913C141.078 114.542 141.657 115.009 142.345 115.213C143.032 115.417 143.773 115.341 144.404 115.002C145.779 114.331 146.936 113.284 147.74 111.983C148.263 111.126 148.709 110.208 149.172 109.316C149.455 108.776 149.687 108.21 149.987 107.687C150.287 107.164 150.75 106.4 151.565 106.443C151.972 106.491 152.356 106.656 152.671 106.918C152.986 107.18 153.218 107.527 153.34 107.918C153.569 108.432 153.664 108.996 153.614 109.556C153.331 113.844 148.872 118.518 144.584 119.032C143.248 119.241 141.88 119.051 140.652 118.485C139.424 117.919 138.39 117.002 137.681 115.851C136.267 113.673 135.431 111.17 135.254 108.579C134.71 102.321 134.649 96.0307 135.074 89.7638C135.631 78.7784 138.153 68.1447 140.845 57.5367C141.248 55.9245 141.651 54.3037 142.192 52.7172C142.346 52.2799 142.663 51.7053 142.046 51.3623C141.429 51.0193 141.077 51.4995 140.751 51.8597C136.781 56.1475 132.321 59.895 128.154 63.9513C126.493 65.5901 124.685 67.0714 122.751 68.3763C121.62 69.1444 120.399 69.7694 119.115 70.2372C113.575 72.1838 109.767 68.402 109.073 64.2343C108.831 62.2849 108.885 60.31 109.236 58.3771C108.979 58.0684 108.738 58.2399 108.533 58.3771C97.7359 64.1742 87.0936 70.1685 77.4032 77.818C70.6151 83.2815 64.147 89.1312 58.031 95.3379C51.8095 101.707 46.3843 108.808 41.8746 116.485C39.4734 120.482 36.8236 124.315 34.1051 128.097C33.3744 129.196 32.4608 130.162 31.4038 130.952C30.9038 131.344 30.3113 131.6 29.6834 131.697C29.0555 131.793 28.4135 131.725 27.8192 131.501C27.4507 131.398 27.1077 131.22 26.812 130.978C26.5163 130.735 26.2744 130.433 26.1017 130.092C25.9291 129.751 25.8294 129.377 25.8092 128.995C25.7889 128.613 25.8484 128.231 25.984 127.874C26.2559 127.053 26.6335 126.272 27.1074 125.55C31.3725 118.599 36.2515 112.044 41.6859 105.963C44.5403 102.734 46.9856 99.1654 48.9666 95.3379C61.3497 72.1152 71.6576 48.0092 78.8268 22.6427C80.9535 15.0876 82.5743 7.42101 84.0836 -0.279866C84.3953 -1.87228 84.5276 -3.49461 84.4781 -5.11649C84.4751 -5.67338 84.4118 -6.22831 84.2894 -6.77158C83.7149 -8.98408 82.5143 -9.6444 80.3361 -8.92405C77.5113 -7.91044 74.9521 -6.27173 72.8496 -4.1303C68.4027 0.132088 64.3499 4.78755 60.7409 9.7793C54.2663 18.7236 49.1895 28.4483 44.7217 38.5075C38.4059 53.0911 33.1246 68.1011 28.9169 83.4264C25.1779 96.5756 21.822 109.816 18.8491 123.149C17.9339 127.562 16.5273 131.86 14.6557 135.96C14.2145 136.987 13.5962 137.927 12.8291 138.739C12.4478 139.186 11.9731 139.545 11.4384 139.789C10.9037 140.033 10.322 140.157 9.73414 140.152C9.14633 140.147 8.56673 140.014 8.03617 139.761C7.5056 139.508 7.03695 139.141 6.66323 138.687C5.47113 137.362 4.55824 135.811 3.97907 134.125C2.90789 131.073 2.18861 127.908 1.83518 124.692C0.977617 119.024 0.694622 113.312 0.308721 107.61C0.301134 106.856 0.197388 106.107 0 105.38V98.1078ZM155.715 27.162C156.414 26.7093 157.019 26.1271 157.499 25.4469C162.691 19.1697 167.496 12.5829 171.889 5.72304C174.792 1.522 177.407 -2.87009 179.719 -7.42332C179.901 -7.72392 180.017 -8.05935 180.062 -8.40796C180.106 -8.75656 180.077 -9.11058 179.976 -9.44716C179.839 -9.88452 179.77 -10.3905 179.29 -10.5534C178.81 -10.7163 178.432 -10.2876 178.158 -9.97885C174.776 -6.56131 171.687 -2.86662 168.922 1.0665C163.459 8.85313 159.489 17.4287 155.784 26.1329C155.687 26.28 155.63 26.4497 155.618 26.6256C155.606 26.8014 155.639 26.9774 155.715 27.1363V27.162ZM120.161 47.0145C119.454 47.3923 118.856 47.9443 118.422 48.6181C117.989 49.2919 117.734 50.0652 117.683 50.8649C118.918 49.8851 119.79 48.5208 120.161 46.9888V47.0145Z" fill="#362B59"/>
<path d="M454 54.3724C453.13 56.4117 451.975 58.3173 450.57 60.0323C446.085 66.0352 441.66 72.0381 436.849 77.8523C434.453 80.8641 431.848 83.7039 429.054 86.3507C427.37 87.9684 425.464 89.3372 423.394 90.4156C419.337 92.3879 416.31 91.2731 414.587 87.0882C413.966 85.5329 413.618 83.8823 413.558 82.2087C413.458 78.3082 413.897 74.4125 414.861 70.6317C416.668 62.4783 419.143 54.4874 422.262 46.7401C422.929 44.8796 423.843 43.1172 424.98 41.5004C425.066 41.3889 425.143 41.2517 424.912 40.9859C424.105 41.4422 423.429 42.0976 422.948 42.8897C421.816 44.5105 420.752 46.1741 419.595 47.7692C416.559 51.9455 413.489 56.1046 410.427 60.2552C409.424 61.6572 408.296 62.966 407.057 64.1657C406.305 64.9204 405.414 65.5231 404.433 65.9408C403.782 66.2355 403.055 66.3196 402.354 66.1812C401.653 66.0428 401.013 65.689 400.523 65.169C399.601 64.2791 399.044 63.0774 398.962 61.7988C398.84 60.3824 399.006 58.9559 399.451 57.6054C401.066 52.6256 403.8 48.0817 407.443 44.3218C408.301 43.4591 409.263 42.7072 410.307 42.0836C412.017 40.9457 414.07 40.4393 416.113 40.6514C416.741 40.7288 417.378 40.6726 417.982 40.4864C418.587 40.3001 419.145 39.9882 419.62 39.5709C421.134 38.2994 422.475 36.8347 423.608 35.2145C424.937 33.3633 426.368 31.5883 427.896 29.8977C428.656 29.0108 429.572 28.2698 430.597 27.7109C430.885 27.5197 431.213 27.3956 431.555 27.348C431.898 27.3004 432.247 27.3304 432.576 27.4358C432.905 27.5412 433.207 27.7193 433.458 27.9569C433.709 28.1945 433.904 28.4856 434.027 28.8086C434.517 29.7078 434.643 30.7607 434.379 31.75C434.176 32.5871 433.864 33.3942 433.453 34.1512C432.595 35.7205 431.824 37.2984 430.957 38.842C424.622 50.1171 420.309 62.4143 418.214 75.1767C417.716 77.8166 417.486 80.5002 417.528 83.1863C417.543 84.1493 417.708 85.104 418.017 86.0163C418.609 87.5856 419.732 87.9801 421.138 87.1654C421.909 86.6745 422.622 86.0992 423.265 85.4503C429.531 79.6745 435.202 73.2852 440.193 66.3782C443.143 62.3305 446.376 58.4887 449.258 54.3724C449.748 53.6019 450.394 52.9419 451.153 52.4343C452.233 51.774 452.971 51.8769 454 52.7859V54.3724ZM403.764 59.0632C403.67 59.5949 403.653 59.8693 403.884 60.0237C404.116 60.178 404.476 60.0237 404.673 59.7922C405.213 59.1833 405.737 58.5744 406.243 57.9398C408.712 54.8126 411.174 51.6682 413.626 48.5067C413.996 48.0276 414.337 47.5265 414.647 47.006C414.812 46.8103 414.908 46.5658 414.92 46.3101C414.933 46.0544 414.861 45.8017 414.715 45.591C414.304 45.1107 413.78 45.4023 413.335 45.6424C413.034 45.8139 412.747 46.0088 412.477 46.2256C408.544 49.1953 405.614 53.2983 404.082 57.9827C403.91 58.4544 403.807 58.8917 403.764 59.0632Z" fill="#362B59"/>
<path d="M325.555 56.5677C324.852 56.4075 324.128 56.364 323.411 56.4391C321.787 56.4506 320.174 56.1807 318.643 55.6415C315.581 54.501 314.355 52.1255 315.273 48.9869C315.566 47.9078 316.042 46.8869 316.679 45.9683C319.655 41.6003 323.521 37.912 328.025 35.1459C329.469 34.19 331.148 33.65 332.878 33.5851C333.692 33.5484 334.502 33.6965 335.25 34.0183C335.998 34.34 336.663 34.8271 337.195 35.4428C337.727 36.0585 338.113 36.7869 338.324 37.5732C338.534 38.3595 338.563 39.1832 338.41 39.9825C338.17 41.3798 337.728 42.7347 337.098 44.0045C336.649 44.9114 336.257 45.8451 335.923 46.8001C335.58 47.8377 335.923 48.155 336.995 48.0007C337.737 47.852 338.454 47.5948 339.121 47.2374C340.837 46.3799 342.483 45.5824 344.181 44.7934C345.268 44.2406 346.469 43.947 347.688 43.9359C348.216 43.9283 348.738 44.0426 349.215 44.2698C349.691 44.4971 350.108 44.8311 350.434 45.246C350.76 45.6609 350.986 46.1454 351.095 46.6618C351.203 47.1783 351.191 47.7127 351.059 48.2236C350.847 48.9576 350.56 49.6675 350.201 50.3418C349.301 52.1598 348.229 53.875 347.165 55.6072C341.905 64.1564 338.016 73.4766 335.64 83.2292C335.354 84.3075 335.196 85.4156 335.168 86.5308C335.138 87.5983 335.438 88.6492 336.026 89.5408C336.121 89.7525 336.264 89.939 336.445 90.0852C336.625 90.2313 336.837 90.3331 337.064 90.3823C337.291 90.4315 337.526 90.4268 337.751 90.3685C337.976 90.3103 338.184 90.2 338.358 90.0468C338.857 89.7026 339.328 89.3183 339.765 88.8976C346.236 82.9666 351.747 76.0669 356.101 68.4449C361.617 59.288 366.049 49.5205 369.308 39.3393C369.561 38.6739 369.714 37.9745 369.762 37.264C369.784 36.9849 369.747 36.7044 369.653 36.4404C369.56 36.1765 369.412 35.935 369.22 35.7314C369.028 35.5279 368.795 35.3669 368.537 35.2586C368.279 35.1504 368.001 35.0974 367.721 35.103C367.113 35.0817 366.504 35.1422 365.912 35.2831C363.725 35.7199 361.493 35.8841 359.265 35.7719C357.684 35.6945 356.162 35.1482 354.892 34.2026C354.04 33.6765 353.416 32.8496 353.144 31.8856C352.873 30.9216 352.973 29.8908 353.426 28.9972C353.713 28.2901 354.106 27.6308 354.592 27.042C357.247 23.7364 360.864 21.3388 364.943 20.1815C365.993 19.8663 367.107 19.8261 368.178 20.0648C369.248 20.3036 370.24 20.8132 371.057 21.545C372.731 22.8224 373.881 24.6675 374.29 26.7332C374.77 29.5289 376.417 29.9748 378.663 29.486C381.588 28.8376 384.613 28.788 387.556 29.3402C388.301 29.4874 389.033 29.6968 389.743 29.9662C394.58 31.7585 396.852 35.6175 396.372 40.8229C396.078 43.3901 395.438 45.9056 394.468 48.3008C391.698 55.7015 388.345 62.8793 384.855 69.9284C381.03 77.6979 377.188 85.4502 374.161 93.5799C372.22 98.4213 370.889 103.486 370.199 108.656C369.693 112.336 370.055 116.083 371.254 119.598C371.654 120.84 372.298 121.989 373.149 122.977C373.281 123.183 373.457 123.357 373.666 123.485C373.874 123.614 374.109 123.693 374.352 123.718C374.595 123.743 374.841 123.712 375.071 123.628C375.301 123.545 375.509 123.41 375.679 123.234C376.15 122.853 376.6 122.447 377.026 122.017C377.32 121.697 377.706 121.474 378.13 121.379C378.555 121.284 378.998 121.321 379.401 121.485C379.774 121.65 380.094 121.916 380.325 122.252C380.557 122.588 380.691 122.981 380.713 123.389C380.861 124.273 380.682 125.181 380.208 125.942C379.735 126.703 378.999 127.265 378.14 127.522C376.774 127.951 375.303 127.908 373.964 127.402C372.493 126.914 371.135 126.136 369.97 125.113C368.805 124.091 367.856 122.846 367.181 121.451C365.466 118.218 365.088 114.71 365.183 111.16C365.363 104.497 367.164 98.185 369.41 91.9763C372.029 85.1182 375.073 78.4305 378.526 71.9523C382.051 65.0918 385.644 58.2313 388.56 51.0107C390.172 47.1839 391.468 43.2317 392.436 39.1936C392.575 38.6038 392.639 37.9986 392.625 37.3927C392.653 36.3901 392.292 35.4154 391.618 34.6733C390.943 33.9313 390.006 33.4798 389.006 33.4136C385.172 33.05 381.307 33.1768 377.506 33.7909C376.818 33.8636 376.168 34.1424 375.642 34.5908C375.116 35.0392 374.737 35.6362 374.556 36.3036C374.396 36.7305 374.27 37.1692 374.178 37.6157C373.235 43.3098 371.1 48.6181 368.767 53.8407C364.365 63.5264 359.077 72.7845 352.971 81.4969C350.617 84.9766 347.833 88.1459 344.687 90.9301C343.932 91.5904 343.135 92.225 342.32 92.8252C341.389 93.5286 340.353 94.0813 339.25 94.4632C335.82 95.6295 332.913 94.1802 331.832 90.7414C331.295 88.7882 331.147 86.7488 331.395 84.7385C331.94 79.444 333.275 74.261 335.357 69.3625C337.322 64.5308 339.585 59.8252 342.131 55.2728C342.62 54.4152 343.246 53.5577 343.787 52.7001C344.078 52.288 344.312 51.8379 344.481 51.3623C344.546 51.1959 344.566 51.0149 344.537 50.8385C344.508 50.6621 344.432 50.4967 344.317 50.3598C344.202 50.2229 344.052 50.1196 343.883 50.0605C343.715 50.0015 343.533 49.9891 343.358 50.0245C343.005 50.0591 342.66 50.1518 342.337 50.2989C339.267 51.6024 336.206 52.9402 333.119 54.218C332.659 54.3509 332.243 54.6036 331.913 54.9502C331.583 55.2967 331.351 55.7247 331.24 56.1904C331.13 56.5807 330.953 56.9491 330.717 57.2795C327.116 63.1023 323.488 68.8908 318.652 73.8046C316.522 76.0477 314.129 78.0258 311.525 79.696C309.519 80.9857 307.283 81.8766 304.939 82.3202C303.541 82.598 302.095 82.5249 300.732 82.1074C299.368 81.6898 298.13 80.9409 297.127 79.9276C295.316 78.2512 293.906 76.1895 292.999 73.8948C292.092 71.6001 291.712 69.1309 291.887 66.6697C291.939 65.512 292.067 64.3543 292.162 63.1109C291.57 63.1623 291.381 63.6168 291.107 63.917C285.533 70.0828 279.598 75.9228 273.475 81.514C271.801 83.1339 269.935 84.5422 267.918 85.7075C266.292 86.6618 264.436 87.154 262.55 87.1311C261.273 87.1465 260.019 86.7877 258.943 86.0989C257.867 85.4101 257.016 84.4215 256.496 83.2549C255.411 80.8944 255.041 78.268 255.432 75.6998C255.924 71.9296 256.931 68.2448 258.425 64.7488C258.695 64.3155 258.859 63.825 258.905 63.3167C258.554 63.1023 258.357 63.4024 258.168 63.5654C255.132 66.138 252.105 68.6335 249.095 71.1976C247.905 72.2216 246.809 73.3495 245.819 74.5678C244.026 76.6482 242.839 79.1818 242.389 81.8914C241.377 88.3831 238.195 93.7514 233.633 98.3736C232.566 99.5307 231.292 100.479 229.877 101.169C229.338 101.454 228.747 101.626 228.14 101.676C227.533 101.726 226.922 101.653 226.344 101.461C225.474 101.232 224.727 100.676 224.257 99.9088C223.787 99.142 223.632 98.2234 223.823 97.3446C224.072 95.9434 224.578 94.6003 225.315 93.3827C227.654 89.3583 230.259 85.4936 233.11 81.8142C234.182 80.4078 235.288 79.0186 236.326 77.5864C238.436 74.6793 238.358 72.6984 236.094 69.8684C234.724 68.2239 232.903 67.0165 230.855 66.3953C227.521 65.3477 224.057 64.7704 220.564 64.6802C219.955 64.6802 219.355 64.6202 218.746 64.6202C215.093 64.6202 211.886 63.6854 209.407 60.6668C208.958 61.0243 208.578 61.4601 208.284 61.9532C204.262 67.4158 200.18 72.8356 195.849 78.0581C193.21 81.4011 190.274 84.4981 187.076 87.3112C185.702 88.5086 184.18 89.5259 182.548 90.3383C181.641 90.7953 180.66 91.0857 179.65 91.1959C178.761 91.2946 177.862 91.1458 177.053 90.766C176.243 90.3861 175.554 89.79 175.062 89.0434C173.747 87.1665 172.998 84.9526 172.901 82.6632C172.719 78.999 173.068 75.3276 173.939 71.7636C175.76 63.0975 178.343 54.609 181.657 46.397C182.282 44.6342 183.147 42.9662 184.229 41.4404C184.306 41.3289 184.409 41.1917 184.161 40.9516C183.416 41.3181 182.793 41.893 182.368 42.6066C181.571 43.7129 180.876 44.8963 180.079 46.0369C176.537 50.9164 173.055 55.8302 169.385 60.6154C168.509 61.7951 167.549 62.9099 166.512 63.9513C165.94 64.5272 165.304 65.0364 164.617 65.4691C162.181 66.9613 159.78 66.1981 158.614 63.5568C158.048 62.0268 157.961 60.3607 158.365 58.7802C158.468 58.2319 158.614 57.6928 158.803 57.168C160.382 52.6396 162.865 48.4793 166.1 44.9392C167.124 43.8141 168.305 42.8435 169.608 42.0578C171.315 40.9289 173.362 40.4314 175.396 40.6514C176.025 40.7243 176.663 40.6643 177.267 40.4752C177.871 40.2861 178.429 39.9722 178.904 39.5537C180.425 38.2867 181.769 36.8215 182.9 35.1973C184.14 33.4691 185.468 31.8061 186.879 30.2149C187.658 29.2785 188.585 28.4761 189.623 27.8395C191.338 26.8619 192.771 27.3678 193.517 29.2201C193.75 29.8674 193.84 30.5576 193.781 31.243C193.721 31.9285 193.514 32.593 193.174 33.1906C192.23 35.1545 191.236 37.0925 190.155 38.9792C186.696 45.1555 183.85 51.6553 181.657 58.3857C179.372 65.1561 177.797 72.1456 176.957 79.2415C176.787 80.8022 176.758 82.3751 176.871 83.9409C176.907 84.7018 177.075 85.4506 177.369 86.1534C177.969 87.5513 178.964 87.8686 180.302 87.1997C181.164 86.669 181.959 86.0354 182.668 85.313C189.658 78.9928 195.532 71.7465 201.149 64.2C203.979 60.3753 206.937 56.6534 209.827 52.8716C210.059 52.5402 210.268 52.1935 210.453 51.834C215.498 42.8928 222.427 35.156 230.76 29.1601C231.865 28.3532 233.056 27.6715 234.311 27.1277C235.095 26.7624 235.96 26.603 236.823 26.6646C237.281 26.7057 237.714 26.8891 238.061 27.189C238.409 27.489 238.654 27.8905 238.761 28.3369C239.001 29.1944 238.761 29.7004 237.835 30.3607C237.509 30.5922 237.149 30.7895 236.806 31.0039C227.21 36.9639 219.912 45.1021 214.278 54.8097C213.82 55.5412 213.478 56.3397 213.266 57.1766C212.966 58.6087 213.378 59.3891 214.793 59.8521C216.446 60.3185 218.146 60.606 219.861 60.7097C222.491 60.8456 225.11 61.1319 227.707 61.5673C230.186 62.001 232.537 62.98 234.591 64.4334C236.645 65.8868 238.351 67.7783 239.585 69.9713C240.991 72.4325 241.523 72.544 243.469 70.4859C247.874 65.9363 252.547 61.6551 257.465 57.6654C259.6 55.8774 261.852 54.2331 264.205 52.743C264.951 52.3115 265.581 51.7053 266.04 50.9764C266.377 50.4086 266.816 49.9085 267.335 49.5014C267.658 49.1696 268.085 48.96 268.545 48.9084C269.005 48.8568 269.468 48.9664 269.856 49.2184C270.288 49.5303 270.612 49.9683 270.784 50.4721C270.956 50.9759 270.968 51.5206 270.817 52.0312C270.654 52.4577 270.447 52.8658 270.199 53.2489C268.939 55.3843 267.678 57.5367 266.375 59.6292C263.369 64.5699 261.201 69.9741 259.96 75.6226C259.552 77.0895 259.441 78.6231 259.634 80.1334C260.08 82.7061 261.632 83.4693 263.922 82.2859C264.459 82.0024 264.974 81.6814 265.466 81.3254C270.786 77.5903 275.676 73.276 280.044 68.462C284.332 63.6425 288.929 59.1575 293.088 54.2437C293.23 54.0351 293.403 53.85 293.602 53.6949C295.317 52.6058 296.115 50.8821 296.972 49.1498C298.015 47.0007 299.455 45.0685 301.217 43.4556C303.155 41.7405 305.334 40.5142 308.035 40.5742C309.572 40.5881 311.044 41.1908 312.15 42.2581C313.256 43.3254 313.91 44.7761 313.978 46.3113C314.079 47.4258 313.938 48.5489 313.566 49.6043C312.499 52.5127 310.8 55.1486 308.592 57.3223C307.815 58.1261 306.861 58.737 305.805 59.1061C305.04 59.4076 304.19 59.412 303.422 59.1184C302.654 58.8248 302.024 58.2545 301.655 57.5196C301.26 56.8764 300.952 56.1732 300.497 55.5729C299.845 54.7154 299.314 54.7582 298.782 55.6672C298.569 56.0124 298.397 56.3807 298.267 56.7649C296.868 60.6178 296.107 64.6729 296.012 68.7707C295.992 70.8056 296.401 72.8219 297.213 74.6879C297.643 75.9006 298.519 76.9038 299.663 77.4932C300.807 78.0827 302.132 78.2141 303.37 77.8609C304.755 77.5488 306.085 77.0284 307.315 76.3172C310.247 74.6971 312.94 72.6768 315.316 70.3143C318.838 66.8069 321.932 62.895 324.534 58.6601C324.992 58.0266 325.338 57.3187 325.555 56.5677ZM322.125 52.803C324.757 52.6572 327.193 52.2799 328.839 50.2303C331.082 47.3106 332.896 44.0849 334.225 40.6514C334.403 40.182 334.477 39.6791 334.44 39.1783C334.403 38.6774 334.256 38.1908 334.01 37.7529C333.719 37.1011 333.393 37.1011 332.836 37.3755C327.967 39.8056 323.826 43.4765 320.83 48.0178C320.29 48.8167 319.922 49.719 319.749 50.6677C319.681 50.9017 319.666 51.1479 319.704 51.3885C319.743 51.6292 319.834 51.8583 319.972 52.0593C320.11 52.2603 320.291 52.4282 320.501 52.5509C320.712 52.6736 320.947 52.748 321.19 52.7687C321.492 52.8008 321.795 52.8123 322.099 52.803H322.125ZM361.152 32.1359C363.745 31.9847 366.314 31.5622 368.819 30.8752C370.74 30.455 371.211 29.7947 371.04 27.8138C370.994 27.3603 370.905 26.9123 370.774 26.476C370.692 26.09 370.531 25.7253 370.301 25.4046C370.071 25.084 369.778 24.8145 369.438 24.613C369.099 24.4116 368.722 24.2827 368.33 24.2343C367.939 24.1859 367.542 24.2192 367.164 24.3321C364.719 24.7918 362.436 25.876 360.535 27.4793C360.028 27.896 359.547 28.3428 359.094 28.8171C358.785 29.1895 358.577 29.6356 358.492 30.112C358.406 30.5883 358.445 31.0788 358.605 31.5356C358.837 32.3931 359.823 31.9386 360.466 32.1015C360.684 32.1352 360.906 32.1467 361.126 32.1359H361.152ZM174.204 46.3542C174.247 45.5738 173.853 45.2651 173.141 45.4966C172.613 45.6875 172.127 45.9787 171.709 46.3542C168.304 48.9348 165.641 52.3695 163.991 56.3104C163.581 57.2314 163.254 58.1871 163.013 59.1661C162.945 59.5091 162.79 59.9036 163.21 60.1008C163.631 60.2981 163.854 59.9465 164.068 59.7064C164.243 59.525 164.406 59.3331 164.557 59.1318C167.381 55.5243 170.222 51.9369 173.081 48.3694C173.604 47.7959 173.98 47.1045 174.179 46.3542H174.204ZM301.843 50.9421C301.843 51.7139 302.427 52.5543 303.43 53.5148C303.528 53.6447 303.652 53.7525 303.794 53.8309C303.937 53.9092 304.094 53.9565 304.257 53.9695C304.419 53.9824 304.582 53.9608 304.735 53.9061C304.888 53.8514 305.028 53.7648 305.145 53.652C306.873 52.4145 308.289 50.7907 309.278 48.9097C309.64 48.186 309.927 47.4275 310.136 46.6457C310.428 45.5138 309.81 44.9306 308.652 45.1193C308.403 45.1616 308.158 45.2306 307.923 45.3251C305.76 46.2002 303.871 47.6394 302.452 49.4928C302.106 49.9026 301.894 50.4083 301.843 50.9421ZM231.018 93.3998C232.733 91.9763 235.425 88.0401 235.648 86.6079C234.007 88.5268 232.466 90.5305 231.035 92.6109C230.932 92.7909 230.743 93.074 231.018 93.3569V93.3998Z" fill="#362B59"/>
<path d="M281.648 30.3607C281.656 30.9508 281.495 31.5309 281.185 32.0329C279.401 35.4632 277.291 38.6619 275.233 41.9034C274.811 42.6591 274.184 43.2803 273.424 43.6957C272.155 44.296 271.177 43.6957 271.1 42.3408C271.065 41.4724 271.296 40.6141 271.76 39.8796C272.352 38.8848 272.961 37.8901 273.604 36.921C274.939 35.0166 276.12 33.0093 277.137 30.9181C277.438 30.2785 277.809 29.6745 278.243 29.1172C278.45 28.7357 278.772 28.4287 279.163 28.2395C279.554 28.0502 279.994 27.9883 280.422 28.0624C281.133 28.234 281.631 29.1687 281.648 30.3607Z" fill="#362B59"/>
</g>
</svg>
