<svg width="187" height="64" viewBox="0 0 187 64" fill="none" xmlns="http://www.w3.org/2000/svg">
<g clip-path="url(#clip0_23_211)">
<path d="M-1.52588e-05 46.75C0.146826 45.9347 0.223768 45.1084 0.22998 44.28C0.46912 39.202 1.08077 34.1484 2.05998 29.16C2.86998 24.94 3.72999 20.74 4.85999 16.6C5.33999 14.86 5.85999 13.14 6.35999 11.4C6.53453 10.5249 6.65475 9.63991 6.71998 8.75C6.76613 8.25341 6.89103 7.76732 7.08998 7.31C7.32998 6.79 7.69998 6.53 8.08998 6.6C8.30656 6.66707 8.49741 6.79886 8.63686 6.97764C8.7763 7.15641 8.85766 7.3736 8.86998 7.6C8.90693 8.19853 8.83233 8.79872 8.64998 9.37C7.56998 13.57 6.32998 17.72 5.33998 21.94C4.33371 26.2306 3.54603 30.5695 2.97998 34.94C2.38195 39.4454 2.07797 43.985 2.06998 48.53C2.05461 51.6855 2.3055 54.8367 2.81998 57.95C2.93998 58.67 2.95998 59.4 3.11998 60.11C3.1951 60.5191 3.36271 60.9056 3.60999 61.24C3.88999 61.6 4.14998 61.59 4.37998 61.24C4.55661 60.9102 4.6846 60.5565 4.75998 60.19C5.99998 55.95 7.01998 51.66 8.11998 47.38C9.89812 40.1692 12.102 33.0701 14.72 26.12C16.5689 21.147 18.9141 16.3729 21.72 11.87C23.6089 8.91248 25.8227 6.17546 28.32 3.71C29.0524 2.96783 29.8876 2.33471 30.8 1.83C31.3439 1.53128 31.9309 1.31875 32.54 1.19999C33.0529 1.09209 33.5867 1.1468 34.067 1.3565C34.5474 1.56621 34.9504 1.92049 35.22 2.37C35.7166 3.14222 36.0154 4.02489 36.09 4.94C36.2055 6.36852 36.0941 7.8063 35.76 9.2C33.9756 17.8591 31.2736 26.3034 27.7 34.39C26.7 36.75 25.61 39.09 24.47 41.39C24.2541 41.7667 24.0989 42.175 24.01 42.6C24.16 42.69 24.21 42.6 24.27 42.52C29.546 37.4192 35.5394 33.117 42.06 29.75C42.69 29.43 43.3 29.08 43.9 28.75C44.3021 28.452 44.7619 28.2408 45.25 28.13C45.3714 28.1077 45.4846 28.0533 45.5778 27.9724C45.6711 27.8915 45.7409 27.7871 45.78 27.67C46.2646 26.635 46.8759 25.6642 47.6 24.78C47.9058 24.3889 48.2741 24.0511 48.69 23.78C48.9147 23.6107 49.1807 23.5048 49.4603 23.4736C49.74 23.4423 50.0228 23.4867 50.2794 23.6022C50.5359 23.7177 50.7567 23.9 50.9187 24.1301C51.0806 24.3602 51.1778 24.6295 51.2 24.91C51.245 25.3885 51.1549 25.8701 50.94 26.3C50.5386 27.1436 50.0527 27.9443 49.49 28.69C49.3311 28.9121 49.1221 29.0937 48.88 29.22C48.7341 29.3165 48.5672 29.3769 48.3933 29.396C48.2194 29.4151 48.0434 29.3925 47.88 29.33C47.36 29.13 47.07 29.26 46.88 29.78C46.5911 30.4492 46.4186 31.1628 46.37 31.89C46.3382 32.2226 46.3382 32.5574 46.37 32.89C46.351 33.0959 46.3911 33.303 46.4854 33.487C46.5798 33.671 46.7245 33.8244 46.9028 33.9293C47.081 34.0341 47.2854 34.0861 47.4921 34.0792C47.6988 34.0722 47.8992 34.0066 48.07 33.89C48.4799 33.6873 48.8657 33.4391 49.22 33.15C52.689 30.4268 55.875 27.3614 58.73 24C59.6347 22.969 60.346 21.7834 60.83 20.5C62.07 17.29 63.33 14.09 64.88 11.01C66.4661 7.72768 68.5247 4.69548 70.99 2.01C71.3642 1.60021 71.7686 1.21914 72.2 0.870001C72.508 0.613917 72.8434 0.392576 73.2 0.209997C73.4482 0.0593856 73.7323 -0.0217516 74.0226 -0.0249275C74.313 -0.0281033 74.5988 0.0468004 74.8502 0.191946C75.1017 0.337091 75.3095 0.547146 75.452 0.800131C75.5944 1.05312 75.6663 1.33973 75.66 1.62999C75.7081 2.31238 75.5986 2.99669 75.34 3.63C74.9547 4.63709 74.4864 5.61044 73.94 6.54C72.74 8.61 71.35 10.54 69.94 12.54C68.01 15.24 66.05 17.92 63.94 20.48C62.0568 22.8062 60.6501 25.4804 59.8 28.35C58.5844 32.1891 57.7274 36.1326 57.24 40.13C56.8352 43.3636 56.7447 46.6289 56.97 49.88C57.0468 50.7896 57.1737 51.6943 57.35 52.59C57.3941 52.8355 57.4786 53.0721 57.6 53.29C57.7435 53.5468 57.9816 53.7375 58.2636 53.8216C58.5456 53.9056 58.8492 53.8763 59.11 53.74C59.6721 53.4606 60.1461 53.0315 60.48 52.5C60.69 52.14 60.87 51.77 61.07 51.4C61.18 51.18 61.28 50.95 61.4 50.74C61.52 50.53 61.71 50.21 62.05 50.23C62.2152 50.2497 62.3711 50.3168 62.4989 50.4233C62.6267 50.5298 62.7209 50.6711 62.77 50.83C62.8658 51.0395 62.9038 51.2708 62.88 51.5C62.7389 52.4489 62.3091 53.3313 61.6489 54.0273C60.9887 54.7233 60.1301 55.1991 59.19 55.39C58.6404 55.4723 58.0788 55.3921 57.5742 55.1594C57.0697 54.9266 56.6441 54.5514 56.35 54.08C55.7694 53.1801 55.4254 52.1482 55.35 51.08C55.1317 48.5155 55.1083 45.9381 55.28 43.37C55.6293 38.9029 56.4198 34.4814 57.64 30.17C57.81 29.5 57.97 28.84 58.19 28.17C58.26 27.99 58.39 27.76 58.13 27.61C57.87 27.46 57.74 27.67 57.6 27.82C55.98 29.57 54.15 31.11 52.44 32.82C51.7615 33.4941 51.0216 34.1034 50.23 34.64C49.7655 34.952 49.2652 35.2071 48.74 35.4C48.3084 35.5765 47.8417 35.65 47.3768 35.6146C46.9119 35.5793 46.4616 35.4361 46.0617 35.1963C45.6618 34.9566 45.3233 34.6269 45.073 34.2335C44.8228 33.8401 44.6676 33.3938 44.62 32.93C44.5224 32.131 44.546 31.3219 44.69 30.53C44.58 30.41 44.48 30.53 44.4 30.53C39.9173 32.812 35.647 35.4893 31.64 38.53C28.8577 40.7689 26.2066 43.1662 23.7 45.71C21.1408 48.3179 18.9109 51.2296 17.06 54.38C16.06 56.02 14.99 57.59 13.87 59.14C13.5694 59.5904 13.194 59.9861 12.76 60.31C12.5552 60.4711 12.3125 60.5769 12.055 60.6172C11.7976 60.6574 11.5342 60.6309 11.29 60.54C11.1389 60.4975 10.9984 60.424 10.8773 60.3242C10.7562 60.2244 10.6572 60.1004 10.5866 59.9603C10.5161 59.8201 10.4755 59.6668 10.4675 59.51C10.4594 59.3533 10.4841 59.1967 10.54 59.05C10.6595 58.7176 10.8208 58.4017 11.02 58.11C12.777 55.2694 14.785 52.5921 17.02 50.11C18.1948 48.785 19.2023 47.3207 20.02 45.75C25.1758 36.243 29.2928 26.2085 32.3 15.82C33.18 12.73 33.84 9.58 34.46 6.43C34.59 5.7717 34.6437 5.1006 34.62 4.43C34.6187 4.20106 34.5918 3.97299 34.54 3.75C34.31 2.84 33.82 2.57 32.92 2.87C31.7612 3.29541 30.7147 3.97941 29.86 4.87C28.0223 6.62013 26.3487 8.53478 24.86 10.59C22.2617 14.2746 20.0595 18.2232 18.29 22.37C15.7015 28.3473 13.5362 34.4991 11.81 40.78C10.2766 46.16 8.90331 51.5833 7.68998 57.05C7.3138 58.8586 6.73689 60.6195 5.96998 62.3C5.79023 62.7218 5.5362 63.108 5.21998 63.44C5.06511 63.6249 4.87158 63.7737 4.65302 63.8757C4.43446 63.9777 4.19619 64.0306 3.95498 64.0306C3.71377 64.0306 3.4755 63.9777 3.25694 63.8757C3.03838 63.7737 2.84485 63.6249 2.68998 63.44C2.20752 62.8959 1.84015 62.2598 1.60999 61.57C1.17323 60.3169 0.878051 59.0188 0.72998 57.7C0.39998 55.37 0.269985 53.03 0.109985 50.7C0.106049 50.3923 0.0623485 50.0865 -0.0200195 49.79L-1.52588e-05 46.75ZM63.81 17.68C64.0979 17.4946 64.3489 17.2572 64.55 16.98C66.674 14.4076 68.6409 11.7093 70.44 8.9C71.6318 7.17873 72.7043 5.37785 73.65 3.51C73.7272 3.38782 73.777 3.25035 73.796 3.10706C73.815 2.96377 73.8027 2.81808 73.76 2.68C73.7 2.5 73.68 2.29 73.48 2.22C73.28 2.15 73.14 2.33 73.01 2.46C71.616 3.8648 70.3416 5.38339 69.2 7C67.0472 10.2227 65.2437 13.6654 63.82 17.27C63.7834 17.3318 63.7633 17.4019 63.7615 17.4737C63.7598 17.5455 63.7765 17.6165 63.81 17.68ZM49.2 25.81C48.9137 25.9678 48.6719 26.1953 48.4971 26.4716C48.3222 26.7478 48.22 27.0637 48.2 27.39C48.6998 26.9892 49.0517 26.4332 49.2 25.81Z" fill="white"/>
<path d="M186.06 28.82C185.702 29.6558 185.227 30.4369 184.65 31.14C182.81 33.6 181 36.08 179.04 38.44C178.055 39.676 176.986 40.8421 175.84 41.93C175.15 42.5913 174.369 43.1504 173.52 43.59C173.208 43.8047 172.848 43.9408 172.472 43.9865C172.096 44.0323 171.714 43.9865 171.36 43.8529C171.005 43.7193 170.688 43.5019 170.436 43.2194C170.183 42.9368 170.003 42.5973 169.91 42.23C169.66 41.5911 169.519 40.9153 169.49 40.23C169.449 38.6293 169.631 37.0307 170.03 35.48C170.76 32.1398 171.763 28.8654 173.03 25.69C173.318 24.9221 173.711 24.1984 174.2 23.54C174.2 23.54 174.27 23.44 174.2 23.33C173.87 23.521 173.595 23.7929 173.4 24.12C172.94 24.78 172.5 25.46 172.02 26.12C170.78 27.83 169.52 29.54 168.27 31.24C167.859 31.8137 167.397 32.3492 166.89 32.84C166.582 33.1521 166.215 33.4002 165.81 33.57C165.544 33.6937 165.245 33.7293 164.958 33.6718C164.67 33.6142 164.408 33.4665 164.21 33.25C163.83 32.8873 163.601 32.3943 163.57 31.87C163.516 31.289 163.585 30.7032 163.77 30.15C164.433 28.1118 165.551 26.2514 167.04 24.71C167.392 24.3541 167.789 24.0449 168.22 23.79C168.919 23.3282 169.757 23.1232 170.59 23.21C170.847 23.2398 171.108 23.2162 171.356 23.1404C171.604 23.0647 171.833 22.9386 172.03 22.77C172.627 22.2498 173.155 21.6549 173.6 21C174.145 20.2405 174.732 19.5127 175.36 18.82C175.671 18.4564 176.047 18.1545 176.47 17.93C176.588 17.8517 176.721 17.8009 176.861 17.7815C177.001 17.762 177.144 17.7744 177.278 17.8176C177.413 17.8609 177.536 17.9339 177.638 18.0312C177.741 18.1286 177.82 18.2478 177.87 18.38C178.073 18.7456 178.127 19.1756 178.02 19.58C177.934 19.9275 177.807 20.2633 177.64 20.58C177.3 21.22 176.97 21.87 176.64 22.5C174.048 27.1221 172.281 32.1609 171.42 37.39C171.217 38.4711 171.123 39.57 171.14 40.67C171.145 41.0647 171.213 41.4562 171.34 41.83C171.364 41.9657 171.424 42.0926 171.512 42.1982C171.601 42.3038 171.716 42.3844 171.845 42.4319C171.975 42.4795 172.114 42.4923 172.25 42.4691C172.386 42.446 172.514 42.3877 172.62 42.3C172.94 42.1066 173.233 41.8712 173.49 41.6C176.059 39.2394 178.384 36.6262 180.43 33.8C181.64 32.14 182.96 30.57 184.14 28.88C184.347 28.5693 184.612 28.3012 184.92 28.09C185.096 27.9562 185.317 27.897 185.536 27.9251C185.755 27.9531 185.954 28.0663 186.09 28.24L186.06 28.82ZM165.47 30.76C165.47 30.98 165.42 31.09 165.47 31.15C165.52 31.21 165.71 31.15 165.79 31.06C166.01 30.81 166.23 30.56 166.44 30.3L169.44 26.45C169.592 26.252 169.733 26.045 169.86 25.83C169.923 25.7465 169.957 25.6447 169.957 25.54C169.957 25.4353 169.923 25.3334 169.86 25.25C169.69 25.06 169.48 25.18 169.29 25.25C169.165 25.323 169.045 25.4031 168.93 25.49C167.317 26.7067 166.116 28.3891 165.49 30.31C165.53 30.51 165.49 30.69 165.47 30.76Z" fill="white"/>
<path d="M133.42 29.74C133.131 29.6767 132.835 29.6565 132.54 29.68C131.859 29.6962 131.181 29.5878 130.54 29.36C130.265 29.2798 130.01 29.1432 129.791 28.9591C129.572 28.7749 129.394 28.5471 129.268 28.2903C129.142 28.0335 129.071 27.7532 129.059 27.4673C129.047 27.1815 129.095 26.8963 129.2 26.63C129.327 26.1889 129.523 25.7704 129.78 25.39C131.005 23.6164 132.589 22.1206 134.43 21C135.023 20.6025 135.716 20.3807 136.43 20.36C136.763 20.3451 137.095 20.4058 137.402 20.5375C137.708 20.6692 137.981 20.8686 138.199 21.1206C138.417 21.3727 138.576 21.6709 138.663 21.9929C138.749 22.3149 138.762 22.6524 138.7 22.98C138.601 23.5533 138.419 24.1091 138.16 24.63C137.974 25.0018 137.813 25.386 137.68 25.78C137.54 26.2 137.68 26.33 138.12 26.26C138.425 26.2064 138.719 26.1016 138.99 25.95L141.06 24.95C141.507 24.7253 142 24.6056 142.5 24.6C142.719 24.5949 142.936 24.6412 143.134 24.7353C143.332 24.8294 143.505 24.9687 143.639 25.1418C143.773 25.315 143.865 25.5172 143.907 25.7322C143.949 25.9473 143.939 26.1691 143.88 26.38C143.8 26.6788 143.686 26.9674 143.54 27.24C143.17 27.99 142.73 28.69 142.3 29.4C140.142 32.9031 138.546 36.7228 137.57 40.72C137.452 41.1605 137.388 41.6139 137.38 42.07C137.371 42.5103 137.497 42.9428 137.74 43.31C137.779 43.4028 137.839 43.4848 137.917 43.5489C137.994 43.613 138.086 43.6573 138.185 43.678C138.283 43.6987 138.385 43.6951 138.482 43.6676C138.579 43.64 138.667 43.5894 138.74 43.52C138.943 43.3764 139.134 43.2159 139.31 43.04C141.966 40.6124 144.226 37.785 146.01 34.66C148.274 30.9087 150.089 26.9046 151.42 22.73C151.529 22.4588 151.593 22.1717 151.61 21.88C151.617 21.766 151.6 21.6518 151.561 21.5446C151.522 21.4374 151.461 21.3394 151.382 21.2568C151.303 21.1742 151.208 21.1088 151.103 21.0646C150.997 21.0204 150.884 20.9984 150.77 21C150.521 20.9926 150.273 21.0161 150.03 21.07C149.132 21.2515 148.215 21.3187 147.3 21.27C146.654 21.2351 146.032 21.0127 145.51 20.63C145.161 20.4121 144.907 20.072 144.796 19.6762C144.685 19.2803 144.725 18.8573 144.91 18.49C145.031 18.2017 145.192 17.9323 145.39 17.69C146.479 16.3426 147.961 15.3675 149.63 14.9C150.061 14.7697 150.519 14.7527 150.958 14.8508C151.398 14.9489 151.805 15.1587 152.14 15.46C152.822 15.9835 153.291 16.7368 153.46 17.58C153.66 18.73 154.33 18.91 155.26 18.71C156.457 18.4453 157.695 18.4249 158.9 18.65C159.206 18.7121 159.507 18.7991 159.8 18.91C160.707 19.2054 161.478 19.8152 161.975 20.6293C162.472 21.4435 162.662 22.4083 162.51 23.35C162.397 24.4052 162.134 25.4389 161.73 26.42C160.6 29.42 159.22 32.42 157.79 35.29C156.23 38.47 154.65 41.65 153.41 44.97C152.614 46.9583 152.066 49.0374 151.78 51.16C151.58 52.6673 151.73 54.2004 152.22 55.64C152.381 56.1337 152.636 56.592 152.97 56.99C153.025 57.0672 153.097 57.1317 153.179 57.1792C153.261 57.2268 153.353 57.2562 153.447 57.2657C153.542 57.2751 153.637 57.2644 153.728 57.2341C153.818 57.2038 153.9 57.1547 153.97 57.09C154.165 56.9367 154.349 56.7696 154.52 56.59C154.646 56.4577 154.809 56.3668 154.987 56.3293C155.166 56.2918 155.352 56.3095 155.52 56.38C155.673 56.4463 155.804 56.5549 155.898 56.693C155.992 56.8311 156.045 56.9931 156.05 57.16C156.114 57.5148 156.049 57.881 155.865 58.1914C155.681 58.5017 155.392 58.7356 155.05 58.85C154.497 59.0452 153.893 59.0452 153.34 58.85C152.736 58.6514 152.179 58.3329 151.701 57.9137C151.223 57.4944 150.835 56.9829 150.56 56.41C149.921 55.0962 149.638 53.6375 149.74 52.18C149.888 49.4838 150.473 46.8294 151.47 44.32C152.543 41.5091 153.789 38.7672 155.2 36.11C156.65 33.29 158.12 30.48 159.32 27.53C159.975 25.9614 160.503 24.3429 160.9 22.69C160.961 22.4483 160.988 22.1992 160.98 21.95C160.994 21.5391 160.847 21.1391 160.571 20.8348C160.294 20.5304 159.91 20.3458 159.5 20.32C157.929 20.173 156.347 20.2267 154.79 20.48C154.511 20.5053 154.246 20.6144 154.03 20.7928C153.814 20.9713 153.657 21.2108 153.58 21.48C153.513 21.6556 153.459 21.8362 153.42 22.02C152.968 24.3214 152.226 26.556 151.21 28.67C149.404 32.6387 147.235 36.4315 144.73 40C143.77 41.4357 142.631 42.7429 141.34 43.89C141.03 44.16 140.7 44.42 140.34 44.66C139.958 44.9489 139.533 45.1751 139.08 45.33C138.785 45.4532 138.467 45.511 138.147 45.4993C137.828 45.4876 137.514 45.4067 137.229 45.2622C136.944 45.1177 136.694 44.913 136.495 44.6623C136.297 44.4116 136.155 44.1208 136.08 43.81C135.86 43.0061 135.799 42.1672 135.9 41.34C136.122 39.1708 136.668 37.0472 137.52 35.04C138.296 33.0416 139.191 31.0914 140.2 29.2C140.4 28.84 140.66 28.51 140.88 28.2C140.999 28.0307 141.093 27.8456 141.16 27.65C141.19 27.5817 141.2 27.5065 141.19 27.4326C141.179 27.3588 141.148 27.2894 141.101 27.2322C141.053 27.175 140.99 27.1323 140.919 27.1089C140.848 27.0856 140.772 27.0825 140.7 27.1C140.555 27.1117 140.412 27.1489 140.28 27.21L136.51 28.82C136.32 28.8742 136.148 28.9778 136.011 29.12C135.874 29.2623 135.777 29.4382 135.73 29.63C135.687 29.788 135.616 29.9371 135.52 30.07C134.12 32.5118 132.442 34.7835 130.52 36.84C129.651 37.7613 128.674 38.5739 127.61 39.26C126.786 39.7873 125.87 40.1538 124.91 40.34C124.334 40.4515 123.739 40.4186 123.179 40.2441C122.619 40.0696 122.111 39.759 121.7 39.34C120.96 38.6527 120.383 37.808 120.013 36.8682C119.642 35.9285 119.488 34.9175 119.56 33.91C119.56 33.44 119.63 32.96 119.67 32.45C119.43 32.45 119.35 32.66 119.24 32.78C116.95 35.31 114.52 37.69 112.01 39.99C111.326 40.6576 110.56 41.2356 109.73 41.71C109.066 42.0986 108.309 42.3024 107.54 42.3C107.016 42.3062 106.503 42.1589 106.062 41.8763C105.621 41.5937 105.273 41.1883 105.06 40.71C104.611 39.7424 104.458 38.6641 104.62 37.61C104.82 36.0647 105.23 34.554 105.84 33.12C105.953 32.9424 106.022 32.74 106.04 32.53C105.9 32.45 105.82 32.53 105.74 32.64C104.5 33.64 103.25 34.72 102.02 35.77C101.531 36.1871 101.082 36.6492 100.68 37.15C99.9388 37.9998 99.4473 39.0381 99.2599 40.15C98.8235 42.7286 97.564 45.0967 95.6699 46.9C95.2487 47.3506 94.751 47.723 94.1999 48C93.9783 48.1153 93.7359 48.1853 93.487 48.2059C93.238 48.2265 92.9874 48.1973 92.7499 48.12C92.4003 48.0171 92.1027 47.7855 91.9171 47.4719C91.7316 47.1583 91.6718 46.7859 91.7499 46.43C91.8523 45.8572 92.059 45.3081 92.3599 44.81C93.3312 43.1662 94.4067 41.5863 95.5799 40.08C96.0199 39.5 96.4799 38.93 96.8999 38.34C97.1066 38.1313 97.2687 37.8829 97.3766 37.6097C97.4844 37.3365 97.5357 37.0443 97.5273 36.7507C97.5189 36.4571 97.4509 36.1683 97.3276 35.9018C97.2043 35.6352 97.0282 35.3965 96.8099 35.2C96.2495 34.5222 95.5016 34.0248 94.6599 33.77C93.2918 33.3464 91.8717 33.1142 90.4399 33.08H89.6899C88.9688 33.133 88.2454 33.0137 87.5795 32.732C86.9135 32.4503 86.3241 32.0143 85.8599 31.46C85.6748 31.6064 85.5188 31.7861 85.3999 31.99C83.7499 34.22 82.0799 36.44 80.3099 38.59C79.2224 39.9557 78.0179 41.2238 76.7099 42.38C76.1438 42.869 75.519 43.2856 74.8499 43.62C74.4803 43.8054 74.0808 43.9239 73.6699 43.97C73.306 44.0094 72.9383 43.9481 72.6068 43.793C72.2753 43.6378 71.9927 43.3946 71.7899 43.09C71.2527 42.3178 70.9442 41.4097 70.8999 40.47C70.8163 38.9547 70.9544 37.4354 71.3099 35.96C72.067 32.4099 73.1345 28.9333 74.4999 25.57C74.7624 24.8571 75.1225 24.184 75.5699 23.57C75.5699 23.52 75.6399 23.47 75.5699 23.37C75.2668 23.5179 75.0131 23.7506 74.8399 24.04C74.5099 24.5 74.2299 24.98 73.8999 25.44C72.4499 27.44 71.0199 29.44 69.5099 31.44C69.1555 31.9259 68.7644 32.3839 68.3399 32.81C68.1025 33.0436 67.841 33.2514 67.5599 33.43C67.3586 33.5828 67.1234 33.6847 66.8743 33.7271C66.6251 33.7695 66.3695 33.7511 66.129 33.6736C65.8885 33.596 65.6702 33.4616 65.4928 33.2816C65.3154 33.1017 65.184 32.8816 65.1099 32.64C64.8669 32.0005 64.8319 31.3006 65.0099 30.64C65.0486 30.4147 65.1089 30.1937 65.1899 29.98C65.8359 28.125 66.8571 26.4229 68.1899 24.98C68.6085 24.5144 69.0937 24.1134 69.6299 23.79C70.329 23.3282 71.1666 23.1232 71.9999 23.21C72.2581 23.241 72.5199 23.2169 72.7681 23.1394C73.0163 23.0618 73.2453 22.9325 73.4399 22.76C74.021 22.242 74.532 21.6503 74.9599 21C75.468 20.3054 76.012 19.6378 76.5899 19C76.9055 18.6072 77.284 18.2693 77.7099 18C77.8429 17.8941 78.0007 17.8239 78.1684 17.7959C78.3361 17.768 78.5081 17.7833 78.6683 17.8403C78.8284 17.8974 78.9714 17.9943 79.0837 18.122C79.1959 18.2497 79.2738 18.4039 79.3099 18.57C79.4028 18.8362 79.4383 19.119 79.4142 19.4C79.39 19.6809 79.3068 19.9535 79.1699 20.2C78.7799 21 78.3699 21.79 77.9299 22.57C76.5034 25.1153 75.331 27.7949 74.4299 30.57C73.5038 33.3475 72.8638 36.2124 72.5199 39.12C72.4648 39.7588 72.4648 40.4012 72.5199 41.04C72.5397 41.3528 72.6107 41.6602 72.7299 41.95C72.759 42.0732 72.8185 42.1873 72.9029 42.2817C72.9873 42.3762 73.0939 42.448 73.2132 42.4907C73.3324 42.5335 73.4604 42.5457 73.5856 42.5264C73.7107 42.507 73.8291 42.4567 73.9299 42.38C74.2938 42.1618 74.6297 41.8999 74.9299 41.6C77.7355 38.9735 80.2745 36.0761 82.5099 32.95C83.6699 31.38 84.8799 29.86 86.0599 28.31C86.1546 28.1717 86.2414 28.0281 86.3199 27.88C88.3851 24.2155 91.2244 21.0452 94.6399 18.59C95.0941 18.2597 95.5838 17.9813 96.0999 17.76C96.4112 17.6115 96.7557 17.546 97.0999 17.57C97.2863 17.5859 97.463 17.6602 97.6049 17.7822C97.7467 17.9043 97.8464 18.068 97.8899 18.25C97.9899 18.6 97.8899 18.81 97.5099 19.08C97.3699 19.18 97.2299 19.26 97.0899 19.35C93.2472 21.7478 90.0615 25.0641 87.8199 29C87.6285 29.3093 87.4868 29.6468 87.3999 30C87.3568 30.1133 87.3394 30.2348 87.3489 30.3556C87.3584 30.4765 87.3945 30.5938 87.4548 30.699C87.515 30.8042 87.5979 30.8947 87.6973 30.964C87.7967 31.0334 87.9103 31.0798 88.0299 31.1C88.7047 31.295 89.3988 31.4157 90.0999 31.46C91.1785 31.5211 92.2533 31.638 93.3199 31.81C94.3357 31.9906 95.2991 32.3935 96.141 32.99C96.9829 33.5864 97.6826 34.3616 98.1899 35.26C98.7599 36.26 98.9799 36.31 99.7799 35.47C101.58 33.6009 103.494 31.8442 105.51 30.21C106.386 29.4803 107.312 28.812 108.28 28.21C108.583 28.0284 108.84 27.7784 109.03 27.48C109.168 27.2487 109.347 27.0452 109.56 26.88C109.689 26.7516 109.858 26.6701 110.039 26.6484C110.22 26.6266 110.404 26.6659 110.56 26.76C110.739 26.888 110.873 27.0684 110.945 27.2762C111.016 27.4841 111.022 27.709 110.96 27.92C110.887 28.0882 110.803 28.2519 110.71 28.41C110.19 29.29 109.71 30.16 109.14 31.03C107.905 33.0518 107.016 35.2655 106.51 37.58C106.339 38.1809 106.292 38.8102 106.37 39.43C106.55 40.43 107.19 40.8 108.12 40.31C108.339 40.1955 108.55 40.0651 108.75 39.92C110.939 38.3944 112.951 36.6302 114.75 34.66C116.5 32.66 118.39 30.85 120.09 28.84C120.15 28.7521 120.225 28.6744 120.31 28.61C120.936 28.1323 121.414 27.4876 121.69 26.75C122.113 25.8676 122.704 25.0762 123.43 24.42C124.158 23.6662 125.152 23.2281 126.2 23.2C126.833 23.2021 127.44 23.449 127.895 23.8889C128.35 24.3288 128.617 24.9277 128.64 25.56C128.674 26.0135 128.616 26.4694 128.47 26.9C128.041 28.089 127.358 29.1706 126.47 30.07C126.152 30.3987 125.761 30.6486 125.33 30.8C125.017 30.9256 124.668 30.9284 124.353 30.8079C124.037 30.6874 123.779 30.4524 123.63 30.15C123.47 29.89 123.34 29.6 123.15 29.35C122.96 29.1 122.67 29.02 122.43 29.35C122.341 29.4907 122.271 29.6418 122.22 29.8C121.648 31.3829 121.334 33.0474 121.29 34.73C121.285 35.566 121.456 36.3937 121.79 37.16C121.966 37.6567 122.324 38.0677 122.792 38.3092C123.261 38.5508 123.803 38.6047 124.31 38.46C124.878 38.3307 125.424 38.1184 125.93 37.83C127.131 37.1652 128.235 36.3373 129.21 35.37C130.668 33.9216 131.947 32.3034 133.02 30.55C133.196 30.3033 133.331 30.0298 133.42 29.74ZM132 28.19C132.51 28.2275 133.021 28.1519 133.498 27.9686C133.976 27.7854 134.406 27.499 134.76 27.13C135.678 25.9309 136.422 24.6077 136.97 23.2C137.042 23.007 137.072 22.8006 137.056 22.5951C137.04 22.3896 136.98 22.1899 136.88 22.01C136.76 21.75 136.63 21.75 136.4 21.86C134.409 22.8566 132.715 24.3604 131.49 26.22C131.267 26.5487 131.114 26.9197 131.04 27.31C131.013 27.4052 131.007 27.5051 131.024 27.6027C131.04 27.7003 131.078 27.793 131.134 27.8743C131.191 27.9555 131.264 28.0233 131.35 28.0727C131.436 28.1221 131.531 28.1519 131.63 28.16C131.752 28.1826 131.876 28.1927 132 28.19ZM148 19.73C149.062 19.6642 150.114 19.4899 151.14 19.21C151.92 19.03 152.14 18.76 152.05 17.95C152.029 17.7672 151.992 17.5865 151.94 17.41C151.908 17.2509 151.843 17.1002 151.749 16.9678C151.655 16.8354 151.535 16.7241 151.395 16.6412C151.256 16.5582 151.101 16.5055 150.939 16.4863C150.778 16.4672 150.615 16.482 150.46 16.53C149.456 16.714 148.518 17.1589 147.74 17.82C147.534 17.9927 147.337 18.1763 147.15 18.37C147.024 18.5222 146.939 18.7044 146.904 18.8988C146.869 19.0932 146.885 19.2934 146.95 19.48C147.05 19.83 147.45 19.64 147.72 19.71C147.813 19.7235 147.906 19.7302 148 19.73ZM71.3799 25.55C71.3799 25.23 71.2399 25.11 70.9499 25.19C70.7318 25.2613 70.5309 25.3771 70.3599 25.53C68.9637 26.586 67.8732 27.9941 67.1999 29.61C67.0309 29.9869 66.897 30.3785 66.7999 30.78C66.7999 30.92 66.7099 31.08 66.8799 31.16C67.0499 31.24 67.1499 31.1 67.2499 31C67.3499 30.9 67.3799 30.84 67.4499 30.76C68.5999 29.3 69.7599 27.84 70.8999 26.38C71.1289 26.1495 71.2943 25.8635 71.3799 25.55ZM123.7 27.41C123.781 27.8142 124.013 28.1722 124.35 28.41C124.389 28.4646 124.439 28.5101 124.497 28.5433C124.555 28.5765 124.619 28.5967 124.686 28.6024C124.753 28.6081 124.82 28.5992 124.883 28.5764C124.945 28.5535 125.003 28.5172 125.05 28.47C125.759 27.9631 126.34 27.2991 126.75 26.53C126.893 26.2316 127.007 25.9201 127.09 25.6C127.21 25.13 126.95 24.89 126.48 24.97L126.18 25.06C125.291 25.4152 124.517 26.0065 123.94 26.77C123.791 26.9506 123.706 27.1759 123.7 27.41ZM94.6999 44.81C95.5395 44.0426 96.1899 43.091 96.5999 42.03C95.9263 42.8086 95.2954 43.6231 94.7099 44.47C94.6399 44.58 94.5599 44.7 94.6699 44.81H94.6999Z" fill="white"/>
<path d="M115.43 19C115.43 19.2412 115.361 19.4774 115.23 19.68C114.5 21.08 113.64 22.4 112.8 23.68C112.624 23.9894 112.364 24.2426 112.05 24.41C111.955 24.4794 111.843 24.5195 111.725 24.5254C111.608 24.5313 111.492 24.5027 111.391 24.4431C111.289 24.3834 111.208 24.2955 111.156 24.1901C111.105 24.0847 111.085 23.9664 111.1 23.85C111.088 23.4972 111.182 23.1489 111.37 22.85C111.62 22.44 111.86 22.03 112.13 21.64C112.677 20.8574 113.158 20.0313 113.57 19.17C113.695 18.9065 113.849 18.6582 114.03 18.43C114.117 18.2765 114.249 18.1531 114.408 18.0763C114.567 17.9995 114.746 17.9729 114.92 18C115.2 18.12 115.42 18.51 115.43 19Z" fill="white"/>
</g>
<defs>
<clipPath id="clip0_23_211">
<rect width="186.06" height="64" fill="white"/>
</clipPath>
</defs>
</svg>
