<svg width="521" height="117" viewBox="0 0 521 117" fill="none" xmlns="http://www.w3.org/2000/svg">
<g clip-path="url(#clip0_13_119)">
<g opacity="0.46">
<path d="M-9 133.05C-8.57709 130.74 -8.35626 128.398 -8.34 126.05C-7.65571 111.61 -5.92113 97.2384 -3.15 83.05C-0.83 71.05 1.6 59.1 4.85 47.31C6.21 42.36 7.85 37.49 9.13 32.52C9.61228 30.0287 9.94621 27.5109 10.13 24.98C10.2467 23.5694 10.5841 22.1859 11.13 20.88C11.83 19.41 12.89 18.67 13.93 18.88C14.5558 19.0737 15.1062 19.4566 15.5055 19.9759C15.9049 20.4952 16.1335 21.1255 16.16 21.78C16.2583 23.4916 16.0414 25.2068 15.52 26.84C12.46 38.78 8.92 50.59 6.11 62.6C3.24294 74.7781 0.996709 87.0939 -0.62 99.5C-2.28865 112.283 -3.14038 125.159 -3.17 138.05C-3.20792 147.027 -2.49207 155.992 -1.03 164.85C-0.679999 166.85 -0.64 168.96 -0.18 170.99C0.0405235 172.154 0.518885 173.255 1.22 174.21C2.02 175.21 2.74 175.21 3.41 174.08C3.90346 173.132 4.26995 172.124 4.5 171.08C8.01 159.01 10.92 146.79 14.05 134.62C19.3 114.15 25.16 93.87 32.81 74.14C38.1216 59.9959 44.828 46.4156 52.83 33.6C58.2285 25.1849 64.5511 17.3998 71.68 10.39C73.7455 8.28387 76.1029 6.4855 78.68 5.05001C80.2341 4.17429 81.9243 3.56582 83.68 3.25001C85.1377 2.93874 86.6564 3.09152 88.0229 3.68691C89.3894 4.28231 90.5354 5.29046 91.3 6.57001C92.7115 8.76375 93.5631 11.2704 93.78 13.87C94.1109 17.9547 93.7902 22.066 92.83 26.05C87.7711 50.6919 80.0908 74.7219 69.92 97.73C67.01 104.45 63.98 111.11 60.72 117.66C60.1009 118.71 59.6615 119.855 59.42 121.05C59.83 121.3 59.97 120.97 60.15 120.8C75.1628 106.292 92.2125 94.0535 110.76 84.47C112.54 83.56 114.29 82.58 116 81.47C117.145 80.6298 118.448 80.0279 119.83 79.7C120.175 79.642 120.498 79.4914 120.764 79.2641C121.03 79.0369 121.229 78.7417 121.34 78.41C122.722 75.4697 124.458 72.7093 126.51 70.19C127.391 69.0732 128.448 68.1072 129.64 67.33C130.299 66.8767 131.068 66.6085 131.866 66.5534C132.664 66.4984 133.462 66.6585 134.177 67.017C134.892 67.3756 135.498 67.9194 135.931 68.5919C136.364 69.2643 136.609 70.0407 136.64 70.84C136.773 72.2142 136.524 73.5984 135.92 74.84C134.76 77.2326 133.37 79.5066 131.77 81.63C131.317 82.2522 130.733 82.7676 130.06 83.14C129.637 83.4116 129.156 83.581 128.657 83.6348C128.157 83.6886 127.651 83.6253 127.18 83.45C125.72 82.89 124.88 83.26 124.24 84.74C123.414 86.6419 122.92 88.6713 122.78 90.74C122.68 91.7375 122.68 92.7425 122.78 93.74C123.13 96.52 125.06 97.58 127.61 96.44C128.775 95.8635 129.871 95.1592 130.88 94.34C140.98 86.72 149.7 77.68 158.05 68.25C160.635 65.3048 162.668 61.9172 164.05 58.25C167.57 49.1 171.18 40 175.58 31.25C180.099 21.9381 185.95 13.3343 192.95 5.71002C194.045 4.55122 195.222 3.47182 196.47 2.48001C197.388 1.7285 198.396 1.09366 199.47 0.590014C203.01 -1.02999 206.05 0.730014 206.47 4.59001C206.623 6.54274 206.308 8.5038 205.55 10.31C204.449 13.1796 203.111 15.9525 201.55 18.6C198.13 24.48 194.2 30.01 190.24 35.53C184.74 43.21 179.15 50.84 173.13 58.12C167.766 64.7365 163.766 72.3496 161.36 80.52C157.898 91.4375 155.454 102.652 154.06 114.02C152.909 123.224 152.651 132.517 153.29 141.77C153.511 144.359 153.878 146.933 154.39 149.48C154.506 150.185 154.75 150.863 155.11 151.48C155.512 152.213 156.187 152.758 156.989 152.996C157.79 153.234 158.653 153.146 159.39 152.75C160.993 151.968 162.342 150.747 163.28 149.23C163.89 148.23 164.41 147.16 164.95 146.12C165.28 145.49 165.55 144.83 165.9 144.22C166.25 143.61 166.79 142.72 167.74 142.77C168.214 142.826 168.662 143.018 169.03 143.323C169.397 143.629 169.668 144.034 169.81 144.49C170.077 145.089 170.187 145.747 170.13 146.4C169.8 151.4 164.6 156.85 159.6 157.45C158.042 157.694 156.446 157.472 155.014 156.812C153.582 156.152 152.377 155.083 151.55 153.74C149.901 151.2 148.927 148.281 148.72 145.26C148.085 137.963 148.015 130.628 148.51 123.32C149.16 110.51 152.1 98.11 155.24 85.74C155.71 83.86 156.18 81.97 156.81 80.12C156.99 79.61 157.36 78.94 156.64 78.54C155.92 78.14 155.51 78.7 155.13 79.12C150.5 84.12 145.3 88.49 140.44 93.22C138.504 95.1311 136.395 96.8585 134.14 98.38C132.822 99.2757 131.398 100.005 129.9 100.55C123.44 102.82 119 98.41 118.19 93.55C117.907 91.2768 117.972 88.974 118.38 86.72C118.08 86.36 117.8 86.56 117.56 86.72C104.97 93.48 92.56 100.47 81.26 109.39C73.3444 115.761 65.8019 122.582 58.67 129.82C51.4151 137.247 45.0888 145.528 39.83 154.48C37.03 159.14 33.94 163.61 30.77 168.02C29.918 169.302 28.8525 170.428 27.62 171.35C27.037 171.807 26.3461 172.106 25.6139 172.218C24.8817 172.33 24.133 172.252 23.44 171.99C23.0103 171.87 22.6103 171.662 22.2655 171.379C21.9207 171.097 21.6386 170.745 21.4373 170.347C21.2359 169.949 21.1197 169.513 21.0961 169.068C21.0725 168.623 21.1419 168.177 21.3 167.76C21.617 166.804 22.0574 165.893 22.61 165.05C27.5835 156.944 33.2729 149.301 39.61 142.21C42.9385 138.445 45.79 134.283 48.1 129.82C62.54 102.74 74.56 74.63 82.92 45.05C85.4 36.24 87.29 27.3 89.05 18.32C89.4135 16.4631 89.5678 14.5713 89.51 12.68C89.5065 12.0306 89.4327 11.3835 89.29 10.75C88.62 8.17001 87.22 7.40001 84.68 8.24002C81.3861 9.42198 78.4018 11.3329 75.95 13.83C70.7644 18.8004 66.0386 24.2291 61.83 30.05C54.28 40.48 48.36 51.82 43.15 63.55C35.7852 80.5559 29.6266 98.0592 24.72 115.93C20.36 131.263 16.4467 146.703 12.98 162.25C11.9127 167.397 10.2725 172.408 8.09 177.19C7.57559 178.387 6.85459 179.483 5.96 180.43C5.51543 180.952 4.96189 181.37 4.33836 181.654C3.71482 181.939 3.03645 182.084 2.351 182.078C1.66554 182.072 0.989679 181.917 0.370983 181.621C-0.247713 181.326 -0.7942 180.899 -1.23 180.37C-2.62011 178.825 -3.68463 177.016 -4.36 175.05C-5.6091 171.49 -6.44786 167.8 -6.86 164.05C-7.86 157.44 -8.19 150.78 -8.64 144.13C-8.64885 143.252 -8.76983 142.378 -9 141.53V133.05ZM172.58 50.32C173.395 49.7921 174.101 49.1132 174.66 48.32C180.714 41.0001 186.317 33.3193 191.44 25.32C194.825 20.4212 197.875 15.2995 200.57 9.99002C200.782 9.63949 200.919 9.24834 200.97 8.84183C201.022 8.43532 200.988 8.0225 200.87 7.63001C200.71 7.12001 200.63 6.53001 200.07 6.34001C199.51 6.15001 199.07 6.65001 198.75 7.01001C194.807 10.9952 191.204 15.3036 187.98 19.89C181.61 28.97 176.98 38.97 172.66 49.12C172.547 49.2915 172.48 49.4894 172.466 49.6945C172.452 49.8995 172.491 50.1047 172.58 50.29V50.32ZM131.12 73.47C130.296 73.9106 129.598 74.5543 129.092 75.34C128.587 76.1257 128.29 77.0275 128.23 77.96C129.67 76.8174 130.687 75.2266 131.12 73.44V73.47Z" fill="#362B59"/>
<path d="M520.41 82.05C519.395 84.428 518.049 86.6502 516.41 88.65C511.18 95.65 506.02 102.65 500.41 109.43C497.616 112.942 494.578 116.254 491.32 119.34C489.357 121.226 487.135 122.823 484.72 124.08C479.99 126.38 476.46 125.08 474.45 120.2C473.726 118.386 473.32 116.462 473.25 114.51C473.134 109.962 473.646 105.419 474.77 101.01C476.877 91.5023 479.764 82.1842 483.4 73.15C484.178 70.9805 485.244 68.9254 486.57 67.04C486.67 66.91 486.76 66.75 486.49 66.44C485.549 66.9721 484.761 67.7364 484.2 68.66C482.88 70.55 481.64 72.49 480.29 74.35C476.75 79.22 473.17 84.07 469.6 88.91C468.429 90.5448 467.114 92.071 465.67 93.47C464.792 94.3501 463.753 95.0529 462.61 95.54C461.851 95.8837 461.003 95.9817 460.186 95.8203C459.368 95.659 458.622 95.2463 458.05 94.64C456.975 93.6023 456.326 92.2009 456.23 90.71C456.088 89.0583 456.282 87.3948 456.8 85.82C458.684 80.0131 461.872 74.7145 466.12 70.33C467.12 69.3241 468.242 68.4473 469.46 67.72C471.454 66.3932 473.848 65.8027 476.23 66.05C476.962 66.1403 477.705 66.0747 478.41 65.8575C479.115 65.6404 479.766 65.2766 480.32 64.79C482.085 63.3072 483.649 61.5994 484.97 59.71C486.519 57.5514 488.189 55.4814 489.97 53.51C490.857 52.4759 491.924 51.6118 493.12 50.96C493.456 50.737 493.838 50.5924 494.237 50.5369C494.637 50.4814 495.043 50.5163 495.427 50.6392C495.812 50.7621 496.163 50.9698 496.456 51.2469C496.749 51.524 496.976 51.8634 497.12 52.24C497.691 53.2886 497.838 54.5164 497.53 55.67C497.293 56.6462 496.93 57.5874 496.45 58.47C495.45 60.3 494.55 62.14 493.54 63.94C486.152 77.088 481.123 91.4277 478.68 106.31C478.099 109.388 477.831 112.518 477.88 115.65C477.898 116.773 478.09 117.886 478.45 118.95C479.14 120.78 480.45 121.24 482.09 120.29C482.988 119.718 483.82 119.047 484.57 118.29C491.877 111.555 498.49 104.104 504.31 96.05C507.75 91.33 511.52 86.85 514.88 82.05C515.452 81.1516 516.205 80.382 517.09 79.79C518.35 79.02 519.21 79.14 520.41 80.2V82.05ZM461.83 87.52C461.72 88.14 461.7 88.46 461.97 88.64C462.24 88.82 462.66 88.64 462.89 88.37C463.52 87.66 464.13 86.95 464.72 86.21C467.6 82.5634 470.47 78.8967 473.33 75.21C473.762 74.6514 474.159 74.067 474.52 73.46C474.713 73.2319 474.825 72.9468 474.839 72.6486C474.854 72.3504 474.77 72.0557 474.6 71.81C474.12 71.25 473.51 71.59 472.99 71.87C472.639 72.0699 472.305 72.2973 471.99 72.55C467.403 76.013 463.987 80.7975 462.2 86.26C462 86.81 461.88 87.32 461.83 87.52Z" fill="#362B59"/>
<path d="M370.63 84.61C369.811 84.4232 368.966 84.3725 368.13 84.46C366.237 84.4735 364.356 84.1588 362.57 83.53C359 82.2 357.57 79.43 358.64 75.77C358.982 74.5117 359.537 73.3212 360.28 72.25C363.75 67.1565 368.259 62.8555 373.51 59.63C375.194 58.5153 377.152 57.8856 379.17 57.81C380.118 57.7672 381.064 57.9399 381.936 58.3151C382.807 58.6903 383.583 59.2583 384.204 59.9763C384.824 60.6942 385.274 61.5436 385.52 62.4605C385.765 63.3774 385.799 64.338 385.62 65.27C385.341 66.8994 384.825 68.4794 384.09 69.96C383.567 71.0177 383.11 72.1064 382.72 73.22C382.32 74.43 382.72 74.8 383.97 74.62C384.836 74.4466 385.671 74.1467 386.45 73.73C388.45 72.73 390.37 71.8 392.35 70.88C393.618 70.2353 395.018 69.8931 396.44 69.88C397.055 69.8712 397.664 70.0045 398.22 70.2695C398.775 70.5345 399.262 70.924 399.642 71.4078C400.022 71.8916 400.286 72.4565 400.412 73.0588C400.538 73.661 400.524 74.2842 400.37 74.88C400.124 75.7359 399.788 76.5637 399.37 77.35C398.32 79.47 397.07 81.47 395.83 83.49C389.696 93.4592 385.161 104.328 382.39 115.7C382.057 116.957 381.872 118.25 381.84 119.55C381.805 120.795 382.155 122.02 382.84 123.06C382.951 123.307 383.118 123.524 383.329 123.695C383.539 123.865 383.787 123.984 384.051 124.041C384.316 124.099 384.59 124.093 384.852 124.025C385.114 123.957 385.357 123.829 385.56 123.65C386.142 123.249 386.691 122.801 387.2 122.31C394.746 115.394 401.173 107.348 406.25 98.46C412.682 87.7822 417.85 76.3923 421.65 64.52C421.945 63.744 422.124 62.9285 422.18 62.1C422.205 61.7745 422.162 61.4474 422.053 61.1396C421.944 60.8318 421.772 60.5502 421.548 60.3128C421.324 60.0755 421.053 59.8877 420.752 59.7615C420.451 59.6353 420.126 59.5735 419.8 59.58C419.09 59.5551 418.381 59.6258 417.69 59.79C415.14 60.2994 412.537 60.4908 409.94 60.36C408.096 60.2697 406.321 59.6327 404.84 58.53C403.846 57.9166 403.119 56.9523 402.802 55.8282C402.486 54.7041 402.603 53.502 403.13 52.46C403.465 51.6355 403.924 50.8667 404.49 50.18C407.586 46.3254 411.804 43.5295 416.56 42.18C417.785 41.8124 419.084 41.7656 420.333 42.044C421.581 42.3224 422.737 42.9167 423.69 43.77C425.642 45.2596 426.983 47.4111 427.46 49.82C428.02 53.08 429.94 53.6 432.56 53.03C435.97 52.2739 439.497 52.2161 442.93 52.86C443.799 53.0316 444.652 53.2758 445.48 53.59C451.12 55.68 453.77 60.18 453.21 66.25C452.867 69.2436 452.12 72.1769 450.99 74.97C447.76 83.6 443.85 91.97 439.78 100.19C435.32 109.25 430.84 118.29 427.31 127.77C425.046 133.416 423.494 139.321 422.69 145.35C422.1 149.641 422.521 154.011 423.92 158.11C424.386 159.558 425.137 160.898 426.13 162.05C426.283 162.291 426.489 162.493 426.732 162.643C426.975 162.793 427.249 162.885 427.532 162.914C427.816 162.943 428.103 162.907 428.371 162.81C428.639 162.712 428.881 162.555 429.08 162.35C429.629 161.906 430.153 161.432 430.65 160.93C430.994 160.557 431.443 160.297 431.938 160.187C432.433 160.076 432.95 160.119 433.42 160.31C433.855 160.503 434.228 160.812 434.498 161.204C434.768 161.596 434.924 162.055 434.95 162.53C435.123 163.561 434.914 164.62 434.361 165.507C433.809 166.395 432.951 167.05 431.95 167.35C430.357 167.85 428.642 167.8 427.08 167.21C425.365 166.641 423.781 165.733 422.422 164.541C421.063 163.349 419.958 161.897 419.17 160.27C417.17 156.5 416.73 152.41 416.84 148.27C417.05 140.5 419.15 133.14 421.77 125.9C424.823 117.903 428.374 110.104 432.4 102.55C436.51 94.55 440.7 86.55 444.1 78.13C445.98 73.6676 447.491 69.0589 448.62 64.35C448.783 63.6623 448.856 62.9565 448.84 62.25C448.874 61.0809 448.453 59.9443 447.666 59.079C446.879 58.2137 445.787 57.6872 444.62 57.61C440.149 57.186 435.643 57.3339 431.21 58.05C430.408 58.1347 429.651 58.4599 429.037 58.9827C428.423 59.5056 427.981 60.2018 427.77 60.98C427.584 61.4779 427.437 61.9894 427.33 62.51C426.23 69.15 423.74 75.34 421.02 81.43C415.887 92.7245 409.72 103.52 402.6 113.68C399.855 117.738 396.609 121.433 392.94 124.68C392.06 125.45 391.13 126.19 390.18 126.89C389.094 127.71 387.886 128.355 386.6 128.8C382.6 130.16 379.21 128.47 377.95 124.46C377.324 122.182 377.151 119.804 377.44 117.46C378.075 111.286 379.633 105.242 382.06 99.53C384.352 93.8958 386.991 88.4086 389.96 83.1C390.53 82.1 391.26 81.1 391.89 80.1C392.23 79.6195 392.503 79.0946 392.7 78.54C392.776 78.3459 392.798 78.1349 392.765 77.9292C392.731 77.7235 392.642 77.5307 392.508 77.371C392.374 77.2114 392.2 77.0908 392.003 77.022C391.806 76.9532 391.594 76.9387 391.39 76.98C390.978 77.0203 390.576 77.1285 390.2 77.3C386.62 78.82 383.05 80.38 379.45 81.87C378.914 82.0251 378.429 82.3197 378.044 82.7238C377.659 83.1279 377.389 83.627 377.26 84.17C377.131 84.6252 376.925 85.0547 376.65 85.44C372.45 92.23 368.22 98.98 362.58 104.71C360.096 107.326 357.306 109.632 354.27 111.58C351.93 113.084 349.323 114.123 346.59 114.64C344.959 114.964 343.274 114.879 341.684 114.392C340.094 113.905 338.65 113.032 337.48 111.85C335.369 109.895 333.724 107.491 332.666 104.815C331.609 102.139 331.166 99.26 331.37 96.39C331.43 95.04 331.58 93.69 331.69 92.24C331 92.3 330.78 92.83 330.46 93.18C323.96 100.37 317.04 107.18 309.9 113.7C307.948 115.589 305.772 117.231 303.42 118.59C301.523 119.703 299.359 120.277 297.16 120.25C295.67 120.268 294.208 119.85 292.954 119.046C291.699 118.243 290.707 117.09 290.1 115.73C288.835 112.977 288.404 109.915 288.86 106.92C289.433 102.524 290.607 98.2267 292.35 94.15C292.665 93.6447 292.856 93.0728 292.91 92.48C292.5 92.23 292.27 92.58 292.05 92.77C288.51 95.77 284.98 98.68 281.47 101.67C280.083 102.864 278.804 104.179 277.65 105.6C275.559 108.026 274.175 110.98 273.65 114.14C272.47 121.71 268.76 127.97 263.44 133.36C262.195 134.709 260.71 135.815 259.06 136.62C258.432 136.951 257.743 137.152 257.035 137.211C256.327 137.269 255.614 137.184 254.94 136.96C253.926 136.693 253.054 136.044 252.506 135.15C251.959 134.256 251.777 133.185 252 132.16C252.291 130.526 252.881 128.96 253.74 127.54C256.468 122.847 259.505 118.341 262.83 114.05C264.08 112.41 265.37 110.79 266.58 109.12C269.04 105.73 268.95 103.42 266.31 100.12C264.713 98.2024 262.588 96.7944 260.2 96.07C256.312 94.8484 252.274 94.1752 248.2 94.07C247.49 94.07 246.79 94 246.08 94C241.82 94 238.08 92.91 235.19 89.39C234.666 89.8069 234.223 90.3151 233.88 90.89C229.19 97.26 224.43 103.58 219.38 109.67C216.303 113.568 212.879 117.18 209.15 120.46C207.547 121.856 205.773 123.043 203.87 123.99C202.812 124.523 201.667 124.862 200.49 124.99C199.454 125.105 198.405 124.932 197.461 124.489C196.517 124.046 195.714 123.351 195.14 122.48C193.607 120.291 192.733 117.71 192.62 115.04C192.407 110.767 192.815 106.486 193.83 102.33C195.954 92.2244 198.966 82.326 202.83 72.75C203.559 70.6943 204.568 68.7493 205.83 66.97C205.92 66.84 206.04 66.68 205.75 66.4C204.881 66.8274 204.155 67.4979 203.66 68.33C202.73 69.62 201.92 71 200.99 72.33C196.86 78.02 192.8 83.75 188.52 89.33C187.498 90.7057 186.379 92.0057 185.17 93.22C184.503 93.8916 183.761 94.4854 182.96 94.99C180.12 96.73 177.32 95.84 175.96 92.76C175.3 90.9758 175.199 89.0331 175.67 87.19C175.789 86.5507 175.96 85.922 176.18 85.31C178.022 80.0295 180.917 75.1781 184.69 71.05C185.884 69.738 187.261 68.6062 188.78 67.69C190.77 66.3736 193.158 65.7935 195.53 66.05C196.263 66.135 197.006 66.065 197.711 65.8445C198.416 65.624 199.066 65.258 199.62 64.77C201.393 63.2925 202.961 61.584 204.28 59.69C205.726 57.6747 207.274 55.7355 208.92 53.88C209.828 52.7881 210.909 51.8523 212.12 51.11C214.12 49.97 215.79 50.56 216.66 52.72C216.932 53.4748 217.037 54.2796 216.968 55.0789C216.899 55.8782 216.657 56.653 216.26 57.35C215.16 59.64 214 61.9 212.74 64.1C208.707 71.3022 205.388 78.8816 202.83 86.73C200.166 94.625 198.329 102.775 197.35 111.05C197.152 112.87 197.118 114.704 197.25 116.53C197.291 117.417 197.488 118.29 197.83 119.11C198.53 120.74 199.69 121.11 201.25 120.33C202.256 119.711 203.182 118.972 204.01 118.13C212.16 110.76 219.01 102.31 225.56 93.51C228.86 89.05 232.31 84.71 235.68 80.3C235.95 79.9135 236.194 79.5093 236.41 79.09C242.293 68.6637 250.373 59.6418 260.09 52.65C261.378 51.709 262.766 50.9141 264.23 50.28C265.145 49.854 266.153 49.6682 267.16 49.74C267.693 49.7879 268.198 50.0017 268.604 50.3515C269.009 50.7013 269.295 51.1695 269.42 51.69C269.7 52.69 269.42 53.28 268.34 54.05C267.96 54.32 267.54 54.55 267.14 54.8C255.95 61.75 247.44 71.24 240.87 82.56C240.335 83.413 239.937 84.3442 239.69 85.32C239.34 86.99 239.82 87.9 241.47 88.44C243.399 88.9839 245.38 89.3191 247.38 89.44C250.447 89.5985 253.502 89.9324 256.53 90.44C259.42 90.9459 262.162 92.0874 264.557 93.7822C266.952 95.477 268.941 97.6828 270.38 100.24C272.02 103.11 272.64 103.24 274.91 100.84C280.046 95.5348 285.496 90.5425 291.23 85.89C293.72 83.8051 296.346 81.8876 299.09 80.15C299.96 79.6469 300.694 78.9399 301.23 78.09C301.622 77.4279 302.134 76.8447 302.74 76.37C303.116 75.9831 303.615 75.7387 304.151 75.6785C304.687 75.6184 305.228 75.7461 305.68 76.04C306.183 76.4037 306.561 76.9144 306.762 77.5019C306.962 78.0894 306.976 78.7246 306.8 79.32C306.611 79.8173 306.369 80.2933 306.08 80.74C304.61 83.23 303.14 85.74 301.62 88.18C298.115 93.9414 295.587 100.243 294.14 106.83C293.664 108.541 293.535 110.329 293.76 112.09C294.28 115.09 296.09 115.98 298.76 114.6C299.386 114.269 299.987 113.895 300.56 113.48C306.764 109.124 312.466 104.094 317.56 98.48C322.56 92.86 327.92 87.63 332.77 81.9C332.936 81.6568 333.138 81.4409 333.37 81.26C335.37 79.99 336.3 77.98 337.3 75.96C338.516 73.4539 340.195 71.2008 342.25 69.32C344.51 67.32 347.05 65.89 350.2 65.96C351.992 65.9762 353.709 66.6789 354.999 67.9235C356.288 69.1681 357.051 70.8598 357.13 72.65C357.247 73.9496 357.084 75.2593 356.65 76.49C355.405 79.8815 353.424 82.9552 350.85 85.49C349.944 86.4273 348.831 87.1396 347.6 87.57C346.708 87.9216 345.717 87.9267 344.821 87.5844C343.925 87.242 343.19 86.577 342.76 85.72C342.3 84.97 341.94 84.15 341.41 83.45C340.65 82.45 340.03 82.5 339.41 83.56C339.162 83.9625 338.961 84.3919 338.81 84.84C337.179 89.3328 336.29 94.0615 336.18 98.84C336.156 101.213 336.633 103.564 337.58 105.74C338.082 107.154 339.104 108.324 340.438 109.011C341.771 109.699 343.317 109.852 344.76 109.44C346.376 109.076 347.927 108.469 349.36 107.64C352.78 105.751 355.92 103.395 358.69 100.64C362.797 96.55 366.405 91.9883 369.44 87.05C369.974 86.3112 370.377 85.4858 370.63 84.61ZM366.63 80.22C369.7 80.05 372.54 79.61 374.46 77.22C377.075 73.8153 379.19 70.0539 380.74 66.05C380.948 65.5027 381.034 64.9163 380.991 64.3322C380.947 63.7482 380.777 63.1807 380.49 62.67C380.15 61.91 379.77 61.91 379.12 62.23C373.443 65.0638 368.614 69.3444 365.12 74.64C364.49 75.5715 364.061 76.6238 363.86 77.73C363.781 78.0029 363.763 78.29 363.808 78.5706C363.852 78.8512 363.959 79.1184 364.12 79.3528C364.281 79.5872 364.491 79.783 364.737 79.926C364.983 80.0691 365.257 80.1558 365.54 80.18C365.892 80.2175 366.246 80.2308 366.6 80.22H366.63ZM412.14 56.12C415.163 55.9438 418.16 55.4511 421.08 54.65C423.32 54.16 423.87 53.39 423.67 51.08C423.617 50.5513 423.513 50.0289 423.36 49.52C423.265 49.07 423.077 48.6446 422.809 48.2707C422.541 47.8968 422.198 47.5826 421.803 47.3477C421.407 47.1128 420.967 46.9624 420.511 46.906C420.054 46.8496 419.591 46.8884 419.15 47.02C416.3 47.5561 413.637 48.8204 411.42 50.69C410.829 51.176 410.268 51.6969 409.74 52.25C409.38 52.6843 409.138 53.2045 409.038 53.76C408.938 54.3155 408.983 54.8874 409.17 55.42C409.44 56.42 410.59 55.89 411.34 56.08C411.595 56.1192 411.853 56.1326 412.11 56.12H412.14ZM194.14 72.7C194.19 71.79 193.73 71.43 192.9 71.7C192.284 71.9226 191.717 72.2621 191.23 72.7C187.259 75.7093 184.155 79.7146 182.23 84.31C181.752 85.384 181.371 86.4984 181.09 87.64C181.01 88.04 180.83 88.5 181.32 88.73C181.81 88.96 182.07 88.55 182.32 88.27C182.523 88.0585 182.714 87.8347 182.89 87.6C186.183 83.3934 189.497 79.21 192.83 75.05C193.44 74.3812 193.879 73.575 194.11 72.7H194.14ZM342.98 78.05C342.98 78.95 343.66 79.93 344.83 81.05C344.944 81.2016 345.089 81.3272 345.255 81.4186C345.421 81.51 345.605 81.5651 345.794 81.5802C345.983 81.5953 346.173 81.5702 346.352 81.5063C346.53 81.4425 346.693 81.3415 346.83 81.21C348.845 79.767 350.496 77.8734 351.65 75.68C352.072 74.8361 352.407 73.9516 352.65 73.04C352.99 71.72 352.27 71.04 350.92 71.26C350.629 71.3094 350.344 71.3899 350.07 71.5C347.547 72.5205 345.344 74.1987 343.69 76.36C343.287 76.8379 343.039 77.4275 342.98 78.05ZM260.39 127.56C262.39 125.9 265.53 121.31 265.79 119.64C263.875 121.878 262.08 124.214 260.41 126.64C260.29 126.85 260.07 127.18 260.39 127.51V127.56Z" fill="#362B59"/>
<path d="M319.43 54.05C319.439 54.7381 319.252 55.4146 318.89 56C316.81 60 314.35 63.73 311.95 67.51C311.457 68.3912 310.726 69.1156 309.84 69.6C308.36 70.3 307.22 69.6 307.13 68.02C307.09 67.0074 307.358 66.0066 307.9 65.15C308.59 63.99 309.3 62.83 310.05 61.7C311.606 59.4793 312.984 57.1386 314.17 54.7C314.52 53.9542 314.953 53.2498 315.46 52.6C315.702 52.1551 316.076 51.7971 316.532 51.5764C316.988 51.3558 317.501 51.2836 318 51.37C318.83 51.57 319.41 52.66 319.43 54.05Z" fill="#362B59"/>
</g>
</g>
<defs>
<clipPath id="clip0_13_119">
<rect width="529.4" height="182.11" fill="white" transform="translate(-9)"/>
</clipPath>
</defs>
</svg>
