<svg width="38" height="17" viewBox="0 0 38 17" fill="none" xmlns="http://www.w3.org/2000/svg">
<path opacity="0.9" d="M1.04999 10.12L0.830017 12.12L1.04999 14.12C1.04999 14.23 1.16998 14.23 1.16998 14.23C1.19916 14.23 1.22717 14.2184 1.2478 14.1978C1.26843 14.1772 1.28003 14.1492 1.28003 14.12L1.60999 12.12L1.28003 10.12C1.28003 10.0908 1.26843 10.0629 1.2478 10.0422C1.22717 10.0216 1.19916 10.01 1.16998 10.01C1.16998 10.01 1.04999 10.01 1.04999 10.12ZM2.40002 8.89L2.06 12.14L2.40002 15.39C2.40002 15.4192 2.41156 15.4472 2.43219 15.4678C2.45282 15.4884 2.48084 15.5 2.51001 15.5C2.53918 15.5 2.56714 15.4884 2.58777 15.4678C2.6084 15.4472 2.62 15.4192 2.62 15.39L3.07001 12.14L2.62 8.89C2.62 8.86083 2.6084 8.83285 2.58777 8.81222C2.56714 8.79159 2.53918 8.78 2.51001 8.78L2.40002 8.89ZM6.65997 8.44L6.42999 12.14L6.65997 16.06C6.66222 16.1186 6.68585 16.1743 6.72638 16.2167C6.76691 16.2591 6.82157 16.2852 6.88 16.29C6.93948 16.2854 6.99536 16.2597 7.03754 16.2175C7.07971 16.1753 7.10539 16.1195 7.10999 16.06L7.54999 12.14L7.21997 8.44C7.21513 8.38157 7.1891 8.32692 7.14673 8.28639C7.10435 8.24586 7.04858 8.22225 6.98999 8.22C6.76999 8.22 6.65997 8.33 6.65997 8.44ZM3.85999 8.22L3.52002 12.14L3.85999 15.84C3.86455 15.8968 3.88919 15.9502 3.9295 15.9905C3.96981 16.0308 4.02319 16.0554 4.08002 16.06C4.14006 16.0009 4.17874 15.9235 4.19 15.84L4.53003 12.14L4.19 8.22C4.18676 8.1676 4.1664 8.1177 4.13208 8.07797C4.09776 8.03823 4.05137 8.01084 4 8C4 8.11 3.89001 8.11 3.89001 8.22M5.22998 8.11L4.89001 12.11L5.22998 15.92C5.22288 15.9535 5.22337 15.9882 5.23138 16.0215C5.23939 16.0548 5.25474 16.0859 5.27631 16.1125C5.29787 16.1391 5.3251 16.1606 5.35602 16.1753C5.38694 16.1901 5.42076 16.1977 5.45502 16.1977C5.48927 16.1977 5.5231 16.1901 5.55402 16.1753C5.58493 16.1606 5.61217 16.1391 5.63373 16.1125C5.65529 16.0859 5.67064 16.0548 5.67865 16.0215C5.68666 15.9882 5.6871 15.9535 5.67999 15.92L6.02002 12.11L5.67999 8.11C5.6754 8.05053 5.64972 7.99466 5.60754 7.95249C5.56537 7.91031 5.50948 7.88459 5.45001 7.88C5.34001 7.88 5.33998 8 5.22998 8.11ZM8.14001 6.11L7.81 12.11L8.14001 16.03C8.14461 16.0895 8.17029 16.1453 8.21246 16.1875C8.25464 16.2297 8.31052 16.2554 8.37 16.26C8.58999 16.26 8.70001 16.15 8.70001 16.03L9.03998 12.11L8.70001 6.11C8.69545 6.05318 8.6708 5.99984 8.63049 5.95953C8.59018 5.91922 8.5368 5.89457 8.47998 5.89C8.25998 5.89 8.14001 6 8.14001 6.11ZM9.59998 4.77L9.38 12.16L9.59998 16.08C9.59327 16.1262 9.59747 16.1733 9.61218 16.2177C9.6269 16.262 9.65174 16.3022 9.68475 16.3352C9.71777 16.3683 9.75806 16.3931 9.80237 16.4078C9.84668 16.4225 9.8938 16.4267 9.94 16.42C10.0276 16.415 10.1101 16.3773 10.1713 16.3143C10.2324 16.2514 10.2677 16.1677 10.27 16.08L10.61 12.16L10.27 4.77C10.27 4.54 10.16 4.43 9.94 4.43C9.8938 4.42329 9.84668 4.42746 9.80237 4.44217C9.75806 4.45688 9.71777 4.48174 9.68475 4.51476C9.65174 4.54777 9.6269 4.58804 9.61218 4.63235C9.59747 4.67666 9.59327 4.72379 9.59998 4.77ZM15.54 4.43L15.32 12.16L15.54 15.86C15.5471 15.977 15.5968 16.0874 15.6797 16.1703C15.7626 16.2532 15.873 16.3029 15.99 16.31C16.1063 16.3008 16.2155 16.2505 16.298 16.168C16.3805 16.0855 16.4308 15.9763 16.44 15.86L16.66 12.16L16.44 4.32C16.4329 4.20298 16.3832 4.09261 16.3003 4.00971C16.2174 3.92681 16.107 3.87712 15.99 3.87C15.65 3.98 15.54 4.09 15.54 4.43ZM11.06 4.09L10.83 12.16L11 16C11 16.23 11.11 16.34 11.33 16.34C11.3762 16.3467 11.4233 16.3425 11.4677 16.3278C11.512 16.3131 11.5523 16.2883 11.5853 16.2553C11.6183 16.2222 11.6431 16.182 11.6578 16.1377C11.6726 16.0933 11.6767 16.0462 11.67 16L11.89 12.19L11.67 4.12C11.67 3.9 11.56 3.79 11.33 3.79C11.2441 3.79479 11.1629 3.83109 11.102 3.89197C11.0411 3.95285 11.0048 4.03404 11 4.12M13.91 4.12L13.69 12.19L13.91 16C13.91 16.1193 13.9574 16.2338 14.0418 16.3182C14.1262 16.4026 14.2406 16.45 14.36 16.45C14.4793 16.45 14.5938 16.4026 14.6782 16.3182C14.7626 16.2338 14.81 16.1193 14.81 16L15.03 12.19L14.81 4.12C14.81 4.00066 14.7626 3.8862 14.6782 3.80181C14.5938 3.71741 14.4793 3.67 14.36 3.67C14.2406 3.67 14.1262 3.71741 14.0418 3.80181C13.9574 3.8862 13.91 4.00066 13.91 4.12ZM12.45 3.9L12.23 12.19L12.45 16C12.45 16.0902 12.4858 16.1767 12.5496 16.2404C12.6133 16.3042 12.6998 16.34 12.79 16.34C12.8802 16.34 12.9666 16.3042 13.0304 16.2404C13.0942 16.1767 13.13 16.0902 13.13 16L13.35 12.19L13.13 3.9C13.13 3.80983 13.0942 3.72335 13.0304 3.65959C12.9666 3.59582 12.8802 3.56 12.79 3.56C12.6998 3.56 12.6133 3.59582 12.5496 3.65959C12.4858 3.72335 12.45 3.80983 12.45 3.9ZM16.94 2.9L16.71 12.2L16.94 15.9C16.9304 15.964 16.9347 16.0294 16.9526 16.0916C16.9706 16.1538 17.0017 16.2114 17.0439 16.2605C17.0862 16.3096 17.1385 16.3489 17.1974 16.3759C17.2562 16.4029 17.3203 16.4169 17.385 16.4169C17.4498 16.4169 17.5137 16.4029 17.5726 16.3759C17.6314 16.3489 17.6838 16.3096 17.726 16.2605C17.7683 16.2114 17.7994 16.1538 17.8174 16.0916C17.8353 16.0294 17.8396 15.964 17.83 15.9L18.06 12.2L17.83 2.9C17.8396 2.83597 17.8353 2.77062 17.8174 2.70841C17.7994 2.64619 17.7683 2.58858 17.726 2.53951C17.6838 2.49044 17.6314 2.45107 17.5726 2.42407C17.5137 2.39708 17.4498 2.3831 17.385 2.3831C17.3203 2.3831 17.2562 2.39708 17.1974 2.42407C17.1385 2.45107 17.0862 2.49044 17.0439 2.53951C17.0017 2.58858 16.9706 2.64619 16.9526 2.70841C16.9347 2.77062 16.9304 2.83597 16.94 2.9ZM18.51 2.12L18.28 12.2L18.51 15.9C18.5004 15.964 18.5047 16.0294 18.5226 16.0916C18.5406 16.1538 18.5717 16.2114 18.614 16.2605C18.6562 16.3096 18.7085 16.3489 18.7674 16.3759C18.8263 16.4029 18.8903 16.4169 18.955 16.4169C19.0198 16.4169 19.0837 16.4029 19.1426 16.3759C19.2014 16.3489 19.2538 16.3096 19.296 16.2605C19.3383 16.2114 19.3694 16.1538 19.3874 16.0916C19.4053 16.0294 19.4097 15.964 19.4 15.9L19.63 12.2L19.4 2.12C19.3929 2.00298 19.3432 1.89261 19.2603 1.80971C19.1774 1.72681 19.067 1.67711 18.95 1.67H18.84C18.62 1.67 18.51 1.89 18.51 2.12ZM20.3 1.12C19.96 1.23 19.85 1.34 19.85 1.68V15.91C19.8713 16.0339 19.9238 16.1503 20.0025 16.2483C20.0812 16.3462 20.1836 16.4226 20.3 16.47H32.74C33.9335 16.47 35.0781 15.9959 35.922 15.152C36.7659 14.3081 37.24 13.1635 37.24 11.97C37.24 10.7765 36.7659 9.63193 35.922 8.78802C35.0781 7.94411 33.9335 7.47 32.74 7.47C32.1631 7.46145 31.5908 7.57386 31.06 7.8C30.8939 5.83634 29.9935 4.0075 28.5385 2.67847C27.0834 1.34944 25.1807 0.617955 23.21 0.629999H22.65C21.8494 0.668312 21.0582 0.81982 20.3 1.08" fill="white"/>
</svg>
