<svg width="32" height="21" viewBox="0 0 32 21" fill="none" xmlns="http://www.w3.org/2000/svg">
<path d="M27 19.66C26.8404 19.9884 26.5571 20.2402 26.2122 20.3601C25.8674 20.4801 25.489 20.4585 25.16 20.3C19.68 17.61 13.1 17.51 5.59004 19.98C5.25122 20.0612 4.89423 20.0123 4.5898 19.8428C4.28537 19.6733 4.05567 19.3957 3.94625 19.0649C3.83682 18.7341 3.85562 18.3742 3.99892 18.0566C4.14222 17.739 4.39956 17.4869 4.71999 17.35C12.95 14.65 20.23 14.8 26.37 17.81C26.533 17.8899 26.6787 18.0012 26.7986 18.1375C26.9185 18.2738 27.0104 18.4324 27.0689 18.6043C27.1274 18.7761 27.1515 18.9578 27.1397 19.139C27.1278 19.3202 27.0804 19.4972 27 19.66Z" fill="white"/>
<path d="M29.13 13.41C28.9259 13.8186 28.5685 14.13 28.1357 14.2761C27.703 14.4222 27.23 14.3913 26.82 14.19C20.55 11.1 11.42 10.89 4.60999 13.67C4.40053 13.756 4.17621 13.7999 3.94978 13.7993C3.72334 13.7986 3.49928 13.7533 3.29035 13.666C3.08142 13.5787 2.89169 13.4511 2.73206 13.2905C2.57244 13.1299 2.44601 12.9395 2.35999 12.73C2.27398 12.5206 2.23009 12.2962 2.23078 12.0698C2.23147 11.8433 2.27673 11.6193 2.36402 11.4103C2.45131 11.2014 2.57891 11.0117 2.73951 10.8521C2.90011 10.6925 3.09054 10.566 3.3 10.48C11.08 7.30002 21.15 7.55001 28.35 11.09C28.7593 11.2961 29.0708 11.6553 29.2169 12.0897C29.3629 12.5241 29.3317 12.9985 29.13 13.41Z" fill="white"/>
<path d="M28.78 7.13001C21.28 3.57001 9.52001 4.28001 2.93001 6.97001C2.42444 7.16647 1.86194 7.15664 1.36354 6.94265C0.865139 6.72865 0.470638 6.32758 0.264909 5.8257C0.0591803 5.32383 0.0586496 4.76125 0.263444 4.259C0.468239 3.75674 0.861998 3.35494 1.36 3.14001C8.93 0.0400097 21.92 -0.70999 30.56 3.39001C30.8056 3.50689 31.0258 3.67099 31.2079 3.87294C31.3901 4.0749 31.5307 4.31075 31.6217 4.56704C31.7127 4.82333 31.7522 5.09504 31.7382 5.36665C31.7242 5.63825 31.6569 5.90444 31.54 6.15001C31.4231 6.39558 31.259 6.61573 31.0571 6.79788C30.8551 6.98004 30.6193 7.12063 30.363 7.21163C30.1067 7.30263 29.835 7.34225 29.5634 7.32825C29.2918 7.31425 29.0256 7.24688 28.78 7.13001Z" fill="white"/>
</svg>
