<svg width="190" height="43" viewBox="0 0 190 43" fill="none" xmlns="http://www.w3.org/2000/svg">
<path d="M180.078 0.441284H10.469C5.23944 0.441284 1 4.62118 1 9.77734V32.8317C1 37.9878 5.23944 42.1677 10.469 42.1677H180.078C185.307 42.1677 189.547 37.9878 189.547 32.8317V9.77734C189.547 4.62118 185.307 0.441284 180.078 0.441284Z" stroke="white" stroke-width="0.88" stroke-miterlimit="10"/>
<path d="M45.0093 30.2845C44.928 30.4479 44.8148 30.594 44.6762 30.7143C44.5375 30.8345 44.3763 30.9267 44.2015 30.9853C44.0267 31.044 43.8419 31.0681 43.6576 31.0563C43.4733 31.0444 43.2933 30.9968 43.1277 30.9162C37.5643 28.2287 30.8718 28.1184 23.2234 30.5954C23.0485 30.6532 22.8636 30.6762 22.6796 30.663C22.4956 30.6499 22.316 30.6009 22.1514 30.5188C21.9868 30.4367 21.8404 30.3232 21.7206 30.1848C21.6008 30.0465 21.5101 29.8861 21.4537 29.7129C21.338 29.3645 21.3673 28.985 21.5351 28.6579C21.7029 28.3308 21.9955 28.0827 22.3487 27.968C30.7091 25.2605 38.1134 25.4109 44.3685 28.4293C44.5343 28.5094 44.6824 28.621 44.8044 28.7577C44.9264 28.8944 45.0198 29.0535 45.0794 29.2258C45.1389 29.3981 45.1633 29.5803 45.1513 29.762C45.1393 29.9437 45.091 30.1212 45.0093 30.2845Z" fill="white"/>
<path d="M47.1858 24.0069C47.0849 24.2116 46.944 24.3946 46.7711 24.5454C46.5981 24.6961 46.3967 24.8116 46.1783 24.8853C45.9599 24.9589 45.7289 24.9892 45.4986 24.9745C45.2683 24.9597 45.0432 24.9001 44.8363 24.7991C38.4592 21.7005 29.1732 21.4899 22.2367 24.2777C22.02 24.3629 21.7881 24.4045 21.5548 24.4001C21.3215 24.3956 21.0914 24.3452 20.8782 24.2517C20.665 24.1583 20.4728 24.0237 20.3131 23.856C20.1534 23.6882 20.0294 23.4906 19.9483 23.2749C19.8632 23.061 19.8221 22.8327 19.8273 22.603C19.8325 22.3734 19.8839 22.1471 19.9786 21.9372C20.0732 21.7273 20.2091 21.538 20.3785 21.3803C20.5479 21.2226 20.7474 21.0997 20.9654 21.0186C28.8783 17.8297 39.1203 18.0804 46.3924 21.6403C46.6058 21.7404 46.7963 21.882 46.9526 22.0567C47.1089 22.2314 47.2277 22.4354 47.3018 22.6566C47.376 22.8777 47.4039 23.1114 47.3839 23.3434C47.364 23.5755 47.2966 23.8012 47.1858 24.0069Z" fill="white"/>
<path d="M46.8297 17.7194C39.2016 14.1494 27.2407 14.8614 20.5279 17.559C20.2715 17.662 19.9971 17.7141 19.7202 17.7124C19.4433 17.7107 19.1694 17.6552 18.9143 17.549C18.6593 17.4428 18.4279 17.2881 18.2336 17.0936C18.0393 16.8991 17.8857 16.6688 17.7818 16.4157C17.5735 15.9049 17.5786 15.3336 17.7958 14.8264C18.013 14.3192 18.4247 13.9173 18.9413 13.7082C26.6406 10.6095 39.8525 9.85745 48.63 13.9589C48.8816 14.0742 49.1076 14.2374 49.2951 14.4391C49.4825 14.6408 49.6276 14.877 49.7222 15.1342C49.8167 15.3915 49.8587 15.6646 49.8458 15.9378C49.8329 16.2111 49.7654 16.4792 49.647 16.7266C49.5292 16.9751 49.3626 17.1981 49.1569 17.3827C48.9511 17.5673 48.7104 17.7099 48.4484 17.8022C48.1864 17.8946 47.9085 17.9348 47.6306 17.9206C47.3528 17.9063 47.0806 17.838 46.8297 17.7194Z" fill="white"/>
<path d="M86.4636 25.4229C86.4636 26.0199 86.3132 26.5212 86.0125 26.9268C85.7117 27.3278 85.3038 27.6309 84.7888 27.8359C84.2738 28.0365 83.6905 28.1367 83.0388 28.1367C82.6332 28.1367 82.2641 28.1162 81.9314 28.0752C81.6033 28.0387 81.3048 27.9886 81.0359 27.9248C80.7716 27.861 80.53 27.7881 80.3113 27.7061V27.002C80.6667 27.1387 81.0769 27.2594 81.5417 27.3643C82.0111 27.4645 82.5216 27.5146 83.073 27.5146C83.5925 27.5146 84.0528 27.4395 84.4539 27.2891C84.8595 27.1387 85.1785 26.9108 85.4109 26.6055C85.6433 26.3001 85.7595 25.915 85.7595 25.4502C85.7595 25.04 85.6615 24.7051 85.4656 24.4453C85.2742 24.181 84.9848 23.9554 84.5974 23.7686C84.21 23.5771 83.7224 23.3835 83.1345 23.1875C82.7244 23.0462 82.3507 22.8981 82.0134 22.7432C81.6807 22.5837 81.3959 22.4014 81.1589 22.1963C80.922 21.9867 80.7397 21.736 80.6121 21.4443C80.489 21.1481 80.4275 20.7995 80.4275 20.3984C80.4275 19.847 80.5665 19.3844 80.8445 19.0107C81.127 18.6325 81.5076 18.3477 81.9861 18.1562C82.4692 17.9603 83.0115 17.8623 83.613 17.8623C84.0916 17.8623 84.545 17.9079 84.9734 17.999C85.4063 18.0856 85.8233 18.2178 86.2244 18.3955L85.9783 19.0039C85.5772 18.8307 85.1762 18.7031 84.7751 18.6211C84.3741 18.5391 83.9776 18.498 83.5857 18.498C83.1163 18.498 82.697 18.5687 82.3279 18.71C81.9633 18.8467 81.6739 19.054 81.4597 19.332C81.2455 19.61 81.1384 19.9609 81.1384 20.3848C81.1384 20.8223 81.2364 21.1755 81.4324 21.4443C81.6329 21.7132 81.9154 21.9365 82.28 22.1143C82.6492 22.292 83.0844 22.4652 83.5857 22.6338C84.1781 22.8343 84.6886 23.0462 85.1169 23.2695C85.5453 23.4883 85.8757 23.7663 86.1082 24.1035C86.3451 24.4408 86.4636 24.8805 86.4636 25.4229ZM93.8574 18.0059C95.0468 18.0059 95.9378 18.2337 96.5302 18.6895C97.1227 19.1452 97.4189 19.8538 97.4189 20.8154C97.4189 21.3076 97.3391 21.7451 97.1796 22.1279C97.0247 22.5062 96.79 22.8252 96.4755 23.085C96.1611 23.3447 95.7669 23.5407 95.2929 23.6729C94.8235 23.805 94.2744 23.8711 93.6455 23.8711H92.1074V28H91.4033V18.0059H93.8574ZM93.7822 18.6279H92.1074V23.249H93.5771C94.2242 23.249 94.7802 23.1761 95.2451 23.0303C95.7099 22.8799 96.0677 22.6292 96.3183 22.2783C96.569 21.9274 96.6943 21.4489 96.6943 20.8428C96.6943 20.0726 96.4573 19.512 95.9833 19.1611C95.5094 18.8057 94.7757 18.6279 93.7822 18.6279ZM110.801 22.9893C110.801 23.7503 110.708 24.4453 110.521 25.0742C110.334 25.7031 110.054 26.2454 109.68 26.7012C109.306 27.1569 108.839 27.5101 108.278 27.7607C107.722 28.0114 107.073 28.1367 106.33 28.1367C105.583 28.1367 104.929 28.0114 104.368 27.7607C103.808 27.5101 103.341 27.1569 102.967 26.7012C102.598 26.2409 102.32 25.6963 102.133 25.0674C101.946 24.4339 101.853 23.7367 101.853 22.9756C101.853 21.9639 102.024 21.0729 102.365 20.3027C102.712 19.5326 103.22 18.931 103.89 18.498C104.564 18.0651 105.396 17.8486 106.385 17.8486C107.333 17.8486 108.135 18.056 108.791 18.4707C109.452 18.8809 109.951 19.471 110.288 20.2412C110.63 21.0068 110.801 21.9229 110.801 22.9893ZM102.591 22.9824C102.591 23.8757 102.725 24.6641 102.994 25.3477C103.263 26.0267 103.676 26.5576 104.232 26.9404C104.788 27.3232 105.489 27.5146 106.337 27.5146C107.194 27.5146 107.898 27.3255 108.449 26.9473C109.001 26.569 109.409 26.0404 109.673 25.3613C109.937 24.6823 110.069 23.8916 110.069 22.9893C110.069 21.5628 109.757 20.4554 109.133 19.667C108.513 18.8786 107.597 18.4844 106.385 18.4844C105.533 18.4844 104.824 18.6735 104.259 19.0518C103.698 19.43 103.279 19.9564 103.001 20.6309C102.728 21.3053 102.591 22.0892 102.591 22.9824ZM118.509 28H117.798V18.6416H114.558V18.0059H121.749V18.6416H118.509V28ZM126.04 28V18.0059H126.744V28H126.04ZM133.071 28H132.367V18.0059H137.836V18.6416H133.071V22.9004H137.576V23.5293H133.071V28ZM144.498 23.4609L147.417 18.0059H148.189L144.86 24.1377V28H144.156V24.1924L140.8 18.0059H141.579L144.498 23.4609Z" fill="white"/>
</svg>
