<svg width="30" height="21" viewBox="0 0 30 21" fill="none" xmlns="http://www.w3.org/2000/svg">
<path d="M29.41 3.28C29.2395 2.64467 28.9049 2.06536 28.4397 1.60022C27.9746 1.13508 27.3953 0.800478 26.76 0.629997C24.42 -2.74181e-06 15 0 15 0C15 0 5.62002 -2.74181e-06 3.28002 0.629997C2.64285 0.798944 2.06141 1.13287 1.59441 1.59811C1.12742 2.06335 0.791331 2.64347 0.619986 3.28C-0.206662 8.05784 -0.206662 12.9422 0.619986 17.72C0.791331 18.3565 1.12742 18.9367 1.59441 19.4019C2.06141 19.8671 2.64285 20.2011 3.28002 20.37C5.62002 21 15 21 15 21C15 21 24.38 21 26.72 20.37C27.3553 20.1995 27.9346 19.8649 28.3998 19.3998C28.8649 18.9346 29.1995 18.3553 29.37 17.72C30.2099 12.9433 30.2099 8.05669 29.37 3.28H29.41ZM12 15V6L19.79 10.5L12 15Z" fill="white"/>
</svg>
